<?xml version="1.0" encoding="utf-8"?>

<!DOCTYPE svg PUBLIC "-//W3C//DTD SVG 1.1//EN" "http://www.w3.org/Graphics/SVG/1.1/DTD/svg11.dtd">
<svg version="1.1" id="Layer_1" xmlns="http://www.w3.org/2000/svg" xmlns:xlink="http://www.w3.org/1999/xlink" x="0px" y="0px"
	 viewBox="0 0 1680.097 1686.384" enable-background="new 0 0 1680.097 1686.384" xml:space="preserve">
<g>
	<path d="M840.048,123.22c-10.087-10.085-20.19-20.152-30.27-30.242c-6.551-6.363-12.598-13.433-20.437-18.275
		c-5.13-3.201-11.012-5.428-17.115-5.5c-7.75-0.066-15.506-0.011-23.256-0.028c-0.006,7.186,0.005,14.367-0.006,21.553
		c-0.321,4.035,1.415,7.8,2.222,11.681c0.68,2.736,1.266,5.6,3.063,7.861c2.875,3.897,6.213,7.424,9.624,10.851
		c-6.059,6.086-12.117,12.184-18.231,18.226c-4.444-4.638-8.712-9.541-11.891-15.158c-3.074-4.749-4.964-10.127-6.75-15.462
		c-2.416-7.794-3.881-15.898-3.98-24.069c-0.077-13.82-0.011-27.645-0.033-41.465c17.148,0.006,34.295-0.011,51.438,0.011
		c10.912,0.017,21.686,3.952,30.183,10.763c5.865,4.771,11.576,9.729,17.297,14.671c6.052,6.038,12.097,12.081,18.141,18.124
		c6.044-6.044,12.09-12.086,18.141-18.124c5.721-4.942,11.432-9.901,17.297-14.671c8.496-6.81,19.27-10.746,30.183-10.763
		c17.142-0.022,34.29-0.006,51.438-0.011c-0.022,13.82,0.044,27.645-0.033,41.465c-0.099,8.17-1.564,16.274-3.98,24.069
		c-1.786,5.334-3.676,10.713-6.75,15.462c-3.179,5.616-7.446,10.52-11.891,15.158c-6.114-6.042-12.173-12.139-18.231-18.226
		c3.411-3.427,6.75-6.954,9.624-10.851c1.797-2.261,2.383-5.124,3.063-7.861c0.807-3.881,2.543-7.645,2.222-11.681
		c-0.011-7.186,0-14.367-0.005-21.553c-7.75,0.017-15.506-0.039-23.256,0.028c-6.103,0.072-11.985,2.3-17.115,5.5
		c-7.839,4.842-13.886,11.913-20.437,18.275C860.238,103.068,850.135,113.135,840.048,123.22z"/>
	<path d="M1263.238,260.722c-2.233-14.088-4.489-28.17-6.713-42.258c-1.56-8.998-2.297-18.272-5.792-26.798
		c-2.269-5.605-5.718-10.864-10.613-14.509c-6.231-4.609-12.538-9.123-18.798-13.692c-4.229,5.811-8.44,11.626-12.673,17.434
		c-2.631,3.076-3.44,7.142-5.068,10.756c-1.058,2.613-2.267,5.274-2.143,8.16c0.035,4.842,0.663,9.658,1.408,14.436
		c-8.479,1.363-16.964,2.734-25.462,4.029c-0.87-6.365-1.44-12.84-0.71-19.252c0.305-5.648,1.937-11.111,3.628-16.476
		c2.627-7.726,6.205-15.143,10.927-21.811c8.061-11.226,16.24-22.372,24.346-33.565c13.87,10.084,27.752,20.149,41.607,30.243
		c8.818,6.427,15.221,15.944,18.092,26.448c1.941,7.307,3.646,14.675,5.37,22.036c1.347,8.442,2.686,16.884,4.023,25.326
		c8.442-1.337,16.885-2.672,25.33-4c7.534-0.635,15.068-1.29,22.617-1.702c10.877-0.516,21.907,2.633,30.745,9.033
		c13.881,10.058,27.744,20.151,41.62,30.225c-8.141,11.168-16.214,22.391-24.399,33.526c-4.883,6.551-10.831,12.247-17.367,17.133
		c-4.58,3.266-9.271,6.506-14.549,8.541c-5.873,2.675-12.207,4.134-18.529,5.274c-1.395-8.482-2.713-16.976-4.037-25.461
		c4.774-0.768,9.548-1.659,14.164-3.122c2.782-0.773,4.94-2.745,7.098-4.559c2.934-2.665,6.551-4.69,8.663-8.144
		c4.215-5.82,8.445-11.623,12.664-17.44c-6.28-4.542-12.522-9.145-18.831-13.647c-4.979-3.529-11.047-5.184-17.079-5.61
		c-9.188-0.69-18.236,1.475-27.276,2.773C1291.417,256.286,1277.326,258.492,1263.238,260.722z"/>
	<path d="M1524.783,620.708c6.474-12.709,12.926-25.429,19.408-38.133c4.027-8.196,8.882-16.133,11.066-25.084
		c1.459-5.868,1.76-12.15-0.057-17.977c-2.332-7.391-4.781-14.75-7.16-22.126c-6.836,2.215-13.662,4.445-20.5,6.655
		c-3.937,0.942-6.981,3.756-10.422,5.723c-2.392,1.492-4.935,2.934-6.53,5.342c-2.818,3.938-5.141,8.203-7.346,12.506
		c-7.661-3.881-15.332-7.759-22.967-11.707c3.037-5.66,6.382-11.234,10.741-15.993c3.566-4.391,8.098-7.851,12.619-11.197
		c6.667-4.706,13.921-8.604,21.661-11.223c13.12-4.344,26.289-8.553,39.425-12.845c5.294,16.31,10.608,32.613,15.885,48.923
		c3.356,10.383,2.942,21.846-0.909,32.031c-2.725,7.052-5.676,14.015-8.608,20.984c-3.873,7.621-7.751,15.238-11.631,22.854
		c7.615,3.881,15.231,7.763,22.843,11.653c6.468,3.914,12.949,7.813,19.298,11.917c9.103,5.976,16.175,15.006,19.563,25.379
		c5.318,16.296,10.601,32.61,15.906,48.917c-13.15,4.25-26.279,8.585-39.446,12.782c-7.801,2.43-15.961,3.541-24.121,3.652
		c-5.625-0.05-11.325-0.186-16.791-1.641c-6.324-1.287-12.306-3.831-18.09-6.625c3.857-7.682,7.784-15.328,11.7-22.971
		c4.313,2.185,8.699,4.27,13.294,5.8c2.705,1.01,5.61,0.682,8.422,0.484c3.94-0.432,8.057,0.056,11.796-1.496
		c6.831-2.231,13.664-4.44,20.497-6.666c-2.411-7.366-4.755-14.759-7.213-22.109c-1.954-5.782-5.891-10.687-10.52-14.577
		c-7.028-5.959-15.621-9.525-23.696-13.789C1550.187,633.683,1537.491,627.185,1524.783,620.708z"/>
	<path d="M1524.783,1065.676c12.708-6.477,25.404-12.975,38.116-19.443c8.075-4.264,16.668-7.831,23.696-13.789
		c4.629-3.89,8.566-8.795,10.52-14.577c2.458-7.35,4.802-14.744,7.213-22.109c-6.833-2.226-13.666-4.434-20.497-6.666
		c-3.739-1.552-7.856-1.064-11.796-1.496c-2.813-0.199-5.717-0.526-8.422,0.484c-4.595,1.53-8.981,3.615-13.294,5.8
		c-3.916-7.643-7.843-15.289-11.7-22.971c5.784-2.794,11.766-5.337,18.09-6.625c5.466-1.456,11.166-1.592,16.791-1.641
		c8.159,0.111,16.319,1.222,24.121,3.652c13.167,4.197,26.296,8.532,39.446,12.782c-5.304,16.307-10.587,32.62-15.906,48.917
		c-3.388,10.373-10.46,19.403-19.563,25.379c-6.349,4.104-12.83,8.002-19.298,11.917c-7.613,3.889-15.228,7.772-22.843,11.653
		c3.88,7.616,7.759,15.233,11.631,22.854c2.932,6.969,5.883,13.932,8.608,20.984c3.852,10.185,4.266,21.648,0.909,32.031
		c-5.276,16.31-10.591,32.613-15.885,48.923c-13.137-4.292-26.306-8.501-39.425-12.845c-7.74-2.619-14.994-6.517-21.661-11.223
		c-4.522-3.347-9.053-6.807-12.619-11.197c-4.359-4.759-7.704-10.333-10.741-15.993c7.636-3.948,15.307-7.826,22.967-11.707
		c2.206,4.303,4.528,8.568,7.346,12.506c1.595,2.407,4.137,3.849,6.53,5.342c3.441,1.967,6.485,4.781,10.422,5.723
		c6.838,2.21,13.664,4.44,20.5,6.655c2.379-7.376,4.828-14.735,7.16-22.126c1.818-5.826,1.516-12.109,0.057-17.977
		c-2.183-8.951-7.039-16.888-11.066-25.084C1537.709,1091.105,1531.257,1078.385,1524.783,1065.676z"/>
	<path d="M1263.238,1425.662c14.088,2.23,28.179,4.436,42.265,6.674c9.039,1.297,18.088,3.462,27.276,2.773
		c6.031-0.426,12.099-2.081,17.079-5.61c6.309-4.502,12.551-9.105,18.831-13.647c-4.219-5.817-8.449-11.62-12.664-17.44
		c-2.113-3.453-5.73-5.479-8.663-8.144c-2.158-1.814-4.316-3.786-7.098-4.559c-4.616-1.463-9.391-2.354-14.164-3.122
		c1.324-8.485,2.642-16.979,4.037-25.461c6.322,1.14,12.656,2.598,18.529,5.274c5.278,2.035,9.969,5.275,14.549,8.541
		c6.536,4.886,12.484,10.581,17.367,17.133c8.186,11.135,16.258,22.359,24.399,33.526c-13.876,10.075-27.739,20.167-41.62,30.225
		c-8.838,6.401-19.868,9.549-30.745,9.034c-7.549-0.412-15.083-1.067-22.617-1.702c-8.445-1.328-16.888-2.663-25.33-4
		c-1.338,8.442-2.677,16.884-4.023,25.326c-1.724,7.361-3.429,14.729-5.37,22.036c-2.871,10.504-9.274,20.021-18.092,26.448
		c-13.855,10.094-27.738,20.16-41.607,30.243c-8.105-11.193-16.285-22.339-24.346-33.565c-4.722-6.668-8.3-14.086-10.927-21.811
		c-1.691-5.365-3.323-10.828-3.628-16.476c-0.73-6.412-0.159-12.887,0.71-19.252c8.498,1.294,16.983,2.666,25.462,4.029
		c-0.745,4.777-1.373,9.593-1.408,14.436c-0.125,2.885,1.084,5.546,2.143,8.16c1.628,3.614,2.437,7.68,5.068,10.756
		c4.233,5.807,8.445,11.623,12.673,17.434c6.26-4.569,12.567-9.083,18.798-13.692c4.895-3.645,8.344-8.905,10.613-14.51
		c3.495-8.525,4.232-17.8,5.792-26.797C1258.748,1453.832,1261.005,1439.75,1263.238,1425.662z"/>
	<path d="M840.048,1563.164c10.087,10.085,20.19,20.152,30.27,30.242c6.551,6.363,12.598,13.433,20.437,18.275
		c5.13,3.201,11.012,5.428,17.115,5.5c7.75,0.066,15.506,0.011,23.256,0.028c0.005-7.186-0.006-14.367,0.005-21.553
		c0.321-4.035-1.415-7.8-2.222-11.681c-0.68-2.736-1.266-5.6-3.063-7.861c-2.875-3.897-6.213-7.424-9.624-10.851
		c6.059-6.086,12.117-12.184,18.231-18.226c4.444,4.638,8.712,9.541,11.891,15.158c3.074,4.749,4.964,10.127,6.75,15.462
		c2.416,7.794,3.881,15.898,3.98,24.069c0.077,13.82,0.011,27.645,0.033,41.465c-17.148-0.005-34.295,0.011-51.438-0.011
		c-10.912-0.017-21.686-3.953-30.183-10.763c-5.865-4.771-11.576-9.729-17.297-14.671c-6.052-6.038-12.097-12.081-18.141-18.124
		c-6.044,6.043-12.09,12.086-18.141,18.124c-5.721,4.942-11.432,9.901-17.297,14.671c-8.496,6.81-19.27,10.746-30.183,10.763
		c-17.142,0.022-34.29,0.005-51.438,0.011c0.022-13.82-0.044-27.645,0.033-41.465c0.099-8.17,1.564-16.274,3.98-24.069
		c1.786-5.334,3.676-10.713,6.75-15.462c3.179-5.616,7.446-10.52,11.891-15.158c6.114,6.042,12.173,12.139,18.231,18.226
		c-3.411,3.427-6.75,6.954-9.624,10.851c-1.797,2.261-2.383,5.124-3.063,7.861c-0.807,3.881-2.543,7.645-2.222,11.681
		c0.011,7.186,0,14.367,0.006,21.553c7.75-0.016,15.506,0.039,23.256-0.028c6.103-0.072,11.985-2.3,17.115-5.5
		c7.839-4.842,13.886-11.913,20.437-18.275C819.859,1583.316,829.962,1573.249,840.048,1563.164z"/>
	<path d="M416.859,1425.662c2.233,14.088,4.489,28.171,6.713,42.259c1.56,8.998,2.296,18.272,5.792,26.797
		c2.269,5.605,5.718,10.864,10.613,14.51c6.231,4.609,12.538,9.123,18.798,13.692c4.228-5.811,8.44-11.626,12.673-17.434
		c2.631-3.076,3.44-7.142,5.068-10.756c1.058-2.613,2.267-5.274,2.143-8.16c-0.035-4.843-0.663-9.658-1.408-14.436
		c8.479-1.363,16.964-2.734,25.462-4.029c0.87,6.365,1.44,12.84,0.71,19.252c-0.305,5.648-1.937,11.111-3.628,16.476
		c-2.627,7.726-6.205,15.143-10.927,21.811c-8.06,11.226-16.241,22.372-24.346,33.565c-13.87-10.084-27.752-20.149-41.607-30.243
		c-8.818-6.427-15.221-15.944-18.092-26.448c-1.941-7.307-3.646-14.675-5.37-22.036c-1.347-8.442-2.686-16.884-4.023-25.326
		c-8.442,1.337-16.885,2.672-25.33,4c-7.534,0.635-15.068,1.29-22.617,1.702c-10.877,0.516-21.907-2.633-30.744-9.034
		c-13.881-10.058-27.744-20.151-41.62-30.225c8.141-11.167,16.214-22.391,24.399-33.526c4.883-6.551,10.831-12.247,17.367-17.133
		c4.58-3.266,9.271-6.506,14.549-8.541c5.873-2.675,12.207-4.134,18.529-5.274c1.395,8.482,2.712,16.976,4.037,25.461
		c-4.774,0.768-9.548,1.659-14.164,3.122c-2.782,0.773-4.94,2.745-7.098,4.559c-2.934,2.665-6.551,4.69-8.663,8.144
		c-4.215,5.82-8.445,11.623-12.664,17.44c6.28,4.542,12.522,9.146,18.831,13.647c4.98,3.529,11.047,5.184,17.079,5.61
		c9.188,0.69,18.236-1.476,27.276-2.773C388.68,1430.098,402.771,1427.892,416.859,1425.662z"/>
	<path d="M155.314,1065.676c-6.474,12.709-12.926,25.429-19.408,38.133c-4.027,8.196-8.882,16.133-11.066,25.084
		c-1.459,5.868-1.76,12.15,0.058,17.977c2.332,7.391,4.781,14.75,7.16,22.126c6.836-2.215,13.662-4.445,20.5-6.655
		c3.937-0.942,6.981-3.756,10.422-5.723c2.392-1.492,4.935-2.934,6.53-5.342c2.818-3.938,5.141-8.203,7.346-12.506
		c7.661,3.881,15.332,7.759,22.967,11.707c-3.038,5.66-6.382,11.234-10.741,15.993c-3.566,4.391-8.098,7.851-12.619,11.197
		c-6.666,4.706-13.921,8.604-21.661,11.223c-13.12,4.344-26.289,8.553-39.425,12.845c-5.294-16.31-10.608-32.613-15.885-48.923
		c-3.356-10.383-2.942-21.846,0.909-32.031c2.725-7.052,5.676-14.015,8.608-20.984c3.873-7.621,7.751-15.238,11.631-22.854
		c-7.615-3.881-15.231-7.763-22.843-11.653c-6.468-3.914-12.949-7.813-19.298-11.917c-9.103-5.976-16.175-15.006-19.563-25.379
		c-5.318-16.296-10.601-32.61-15.906-48.917c13.15-4.25,26.279-8.585,39.446-12.782c7.801-2.43,15.961-3.541,24.121-3.652
		c5.625,0.05,11.325,0.186,16.791,1.641c6.324,1.287,12.306,3.831,18.09,6.625c-3.857,7.682-7.784,15.328-11.7,22.971
		c-4.314-2.185-8.7-4.27-13.294-5.8c-2.705-1.01-5.61-0.682-8.422-0.484c-3.94,0.432-8.057-0.056-11.796,1.496
		c-6.831,2.231-13.664,4.44-20.497,6.666c2.411,7.366,4.755,14.759,7.213,22.109c1.954,5.782,5.891,10.687,10.52,14.577
		c7.028,5.959,15.621,9.525,23.696,13.789C129.91,1052.701,142.606,1059.199,155.314,1065.676z"/>
	<path d="M155.314,620.708c-12.708,6.477-25.405,12.975-38.116,19.443c-8.076,4.264-16.669,7.831-23.696,13.789
		c-4.629,3.89-8.566,8.795-10.52,14.577c-2.458,7.35-4.802,14.744-7.213,22.109c6.833,2.226,13.666,4.434,20.497,6.666
		c3.739,1.552,7.855,1.064,11.796,1.496c2.813,0.199,5.717,0.526,8.422-0.484c4.595-1.53,8.981-3.615,13.294-5.8
		c3.916,7.643,7.843,15.289,11.7,22.971c-5.784,2.794-11.766,5.337-18.09,6.625c-5.466,1.456-11.166,1.592-16.791,1.641
		c-8.159-0.111-16.319-1.222-24.121-3.652c-13.167-4.197-26.296-8.532-39.446-12.782c5.304-16.307,10.587-32.62,15.906-48.917
		c3.388-10.373,10.46-19.403,19.563-25.379c6.35-4.104,12.83-8.002,19.298-11.917c7.613-3.889,15.228-7.772,22.843-11.653
		c-3.88-7.616-7.759-15.233-11.631-22.854c-2.932-6.969-5.883-13.932-8.608-20.984c-3.852-10.185-4.265-21.648-0.909-32.031
		c5.276-16.31,10.591-32.613,15.885-48.923c13.137,4.292,26.306,8.501,39.425,12.845c7.74,2.619,14.994,6.517,21.661,11.223
		c4.522,3.347,9.053,6.807,12.619,11.197c4.359,4.759,7.704,10.332,10.741,15.993c-7.636,3.948-15.307,7.826-22.967,11.707
		c-2.206-4.303-4.528-8.568-7.346-12.506c-1.595-2.407-4.137-3.849-6.53-5.342c-3.441-1.967-6.485-4.781-10.422-5.723
		c-6.838-2.21-13.664-4.44-20.5-6.655c-2.379,7.376-4.828,14.735-7.16,22.126c-1.818,5.826-1.516,12.109-0.058,17.977
		c2.183,8.951,7.039,16.888,11.066,25.084C142.388,595.279,148.84,607.999,155.314,620.708z"/>
	<path d="M416.859,260.722c-14.088-2.23-28.179-4.436-42.265-6.674c-9.039-1.297-18.088-3.462-27.276-2.773
		c-6.031,0.426-12.099,2.081-17.079,5.61c-6.309,4.502-12.551,9.105-18.831,13.647c4.22,5.817,8.449,11.62,12.664,17.44
		c2.113,3.453,5.73,5.478,8.663,8.144c2.158,1.814,4.316,3.786,7.098,4.559c4.616,1.463,9.391,2.354,14.164,3.122
		c-1.324,8.485-2.642,16.979-4.037,25.461c-6.322-1.14-12.656-2.598-18.529-5.274c-5.278-2.035-9.969-5.275-14.549-8.541
		c-6.536-4.886-12.484-10.581-17.367-17.133c-8.186-11.135-16.258-22.359-24.399-33.526c13.876-10.075,27.739-20.167,41.62-30.225
		c8.838-6.401,19.868-9.549,30.744-9.033c7.549,0.412,15.083,1.067,22.617,1.702c8.445,1.328,16.888,2.663,25.33,4
		c1.338-8.442,2.677-16.884,4.023-25.326c1.724-7.361,3.429-14.729,5.37-22.036c2.871-10.504,9.274-20.021,18.092-26.448
		c13.855-10.094,27.738-20.16,41.607-30.243c8.105,11.194,16.285,22.339,24.346,33.565c4.722,6.668,8.3,14.086,10.927,21.811
		c1.691,5.365,3.323,10.828,3.628,16.476c0.73,6.412,0.159,12.887-0.71,19.252c-8.498-1.294-16.983-2.666-25.462-4.029
		c0.745-4.778,1.373-9.593,1.408-14.436c0.125-2.885-1.085-5.546-2.143-8.16c-1.628-3.614-2.436-7.68-5.068-10.756
		c-4.233-5.807-8.445-11.623-12.673-17.434c-6.26,4.569-12.567,9.083-18.798,13.692c-4.895,3.645-8.344,8.905-10.613,14.509
		c-3.495,8.525-4.232,17.8-5.792,26.798C421.348,232.552,419.092,246.635,416.859,260.722z"/>
	<path d="M840.048,80.132c-4.747-4.745-9.491-9.493-14.222-14.258c4.111-4.334,8.905-8.154,14.222-10.923
		c5.317,2.77,10.111,6.589,14.222,10.923C849.54,70.639,844.796,75.388,840.048,80.132z"/>
	<path d="M1288.564,225.864c-1.052-6.629-2.099-13.259-3.125-19.895c5.873-1.09,11.997-1.362,17.926-0.478
		c2.673,5.366,4.307,11.274,5.085,17.197C1301.822,223.763,1295.193,224.816,1288.564,225.864z"/>
	<path d="M1565.761,607.394c3.045-5.981,6.095-11.96,9.166-17.932c5.392,2.57,10.506,5.95,14.784,10.15
		c-0.991,5.912-3.142,11.653-5.994,16.901C1577.723,613.487,1571.741,610.442,1565.761,607.394z"/>
	<path d="M1565.761,1078.99c5.979-3.049,11.961-6.093,17.955-9.12c2.852,5.249,5.003,10.989,5.994,16.901
		c-4.277,4.201-9.391,7.58-14.784,10.15C1571.857,1090.951,1568.807,1084.971,1565.761,1078.99z"/>
	<path d="M1288.564,1460.52c6.629,1.048,13.258,2.101,19.887,3.176c-0.778,5.923-2.412,11.831-5.085,17.197
		c-5.929,0.884-12.053,0.612-17.926-0.478C1286.465,1473.779,1287.512,1467.149,1288.564,1460.52z"/>
	<path d="M840.048,1606.252c4.747,4.745,9.491,9.493,14.222,14.258c-4.111,4.334-8.905,8.153-14.222,10.923
		c-5.317-2.77-10.111-6.589-14.222-10.923C830.557,1615.745,835.301,1610.996,840.048,1606.252z"/>
	<path d="M391.533,1460.52c1.052,6.629,2.099,13.259,3.125,19.895c-5.873,1.09-11.997,1.362-17.926,0.478
		c-2.673-5.366-4.307-11.274-5.085-17.197C378.275,1462.622,384.904,1461.569,391.533,1460.52z"/>
	<path d="M114.335,1078.99c-3.045,5.981-6.095,11.96-9.166,17.932c-5.392-2.57-10.506-5.95-14.784-10.15
		c0.991-5.913,3.142-11.653,5.994-16.901C102.374,1072.897,108.356,1075.942,114.335,1078.99z"/>
	<path d="M114.335,607.394c-5.979,3.049-11.961,6.093-17.955,9.12c-2.852-5.249-5.003-10.989-5.994-16.901
		c4.277-4.201,9.391-7.58,14.784-10.15C108.24,595.433,111.29,601.413,114.335,607.394z"/>
	<path d="M391.533,225.864c-6.629-1.048-13.258-2.101-19.887-3.176c0.778-5.923,2.412-11.831,5.085-17.197
		c5.929-0.884,12.053-0.612,17.926,0.478C393.632,212.605,392.585,219.235,391.533,225.864z"/>
	<path d="M749.79,141.878c17.037-17.048,34.074-34.096,51.111-51.145c6.086,6.07,12.139,12.178,18.259,18.22
		c-14.03,14.146-28.253,28.104-42.162,42.372c-5.495,5.981-11.332,11.73-15.904,18.485c-3.798,6.103-5.213,13.339-5.915,20.398
		c-0.558,7.546-0.404,15.147,0.404,22.67c0.393,7.07,4.749,12.98,8.314,18.812c-6.092,6.064-12.139,12.161-18.242,18.209
		c-7.286-6.938-13.19-15.799-14.953-25.843c-1.708-9.901-3.389-19.884-3.278-29.961c0.326-11.802,2.333-23.942,8.176-34.356
		C739.441,153.144,744.378,147.24,749.79,141.878z"/>
	<path d="M354.805,328.87c3.763-23.806,7.525-47.613,11.288-71.419c8.492,1.333,16.979,2.717,25.481,4.008
		c-3.036,19.691-6.338,39.344-9.204,59.061c-0.93,8.069-2.273,16.151-2.001,24.303c0.515,7.17,3.623,13.855,7.204,19.979
		c3.984,6.433,8.576,12.491,13.652,18.103c4.473,5.489,11.471,7.71,17.783,10.332c-1.364,8.487-2.673,16.974-4.055,25.454
		c-9.972-1.33-19.957-5.029-27.288-12.118c-7.201-7.006-14.429-14.095-20.263-22.313c-6.673-9.74-12.185-20.74-13.58-32.6
		C353.055,344.067,353.579,336.389,354.805,328.87z"/>
	<path d="M145.167,712.315c-10.949-21.471-21.898-42.943-32.847-64.414c7.653-3.913,15.333-7.782,22.971-11.735
		c9.118,17.715,17.998,35.555,27.269,53.192c3.991,7.074,7.654,14.402,12.666,20.838c4.631,5.498,11.075,9.08,17.572,11.929
		c7.004,2.863,14.281,5.064,21.685,6.622c6.845,1.812,13.812-0.505,20.46-2.094c3.885,7.668,7.815,15.303,11.681,22.976
		c-8.849,4.785-19.101,7.662-29.199,6.235c-9.944-1.435-19.958-2.922-29.508-6.141c-11.124-3.957-22.049-9.617-30.148-18.392
		C152.684,725.638,148.595,719.119,145.167,712.315z"/>
	<path d="M200.95,1145.751c-21.479-10.935-42.957-21.87-64.436-32.805c3.892-7.664,7.831-15.308,11.686-22.995
		c17.789,8.972,35.459,18.186,53.327,27.005c7.386,3.378,14.658,7.153,22.495,9.413c6.978,1.726,14.297,0.836,21.228-0.678
		c7.349-1.801,14.53-4.297,21.436-7.389c6.603-2.558,10.877-8.527,15.322-13.72c7.65,3.92,15.318,7.787,22.955,11.722
		c-4.347,9.073-10.95,17.426-19.958,22.207c-8.888,4.684-17.864,9.367-27.482,12.376c-11.325,3.337-23.491,5.18-35.201,2.841
		C214.863,1152.112,207.722,1149.241,200.95,1145.751z"/>
	<path d="M500.847,1463.62c-23.804,3.778-47.608,7.556-71.412,11.334c-1.356-8.488-2.663-16.988-4.062-25.473
		c19.665-3.198,39.377-6.13,59.015-9.497c7.961-1.609,16.063-2.829,23.732-5.607c6.66-2.705,12.058-7.727,16.775-13.026
		c4.887-5.776,9.229-12.017,12.999-18.578c3.838-5.951,3.788-13.292,4.331-20.106c8.493-1.325,16.969-2.703,25.461-4.009
		c1.817,9.895,1.384,20.534-3.093,29.697c-4.437,9.014-8.946,18.078-14.959,26.166c-7.201,9.356-15.96,17.998-26.808,22.989
		C515.841,1460.588,508.377,1462.463,500.847,1463.62z"/>
	<path d="M930.307,1544.506c-17.037,17.048-34.074,34.096-51.111,51.145c-6.086-6.07-12.139-12.178-18.259-18.22
		c14.03-14.146,28.253-28.104,42.162-42.372c5.495-5.981,11.332-11.73,15.904-18.485c3.798-6.103,5.213-13.339,5.915-20.398
		c0.558-7.546,0.404-15.146-0.404-22.67c-0.392-7.07-4.748-12.98-8.314-18.812c6.092-6.064,12.139-12.161,18.242-18.209
		c7.286,6.938,13.19,15.799,14.953,25.843c1.708,9.901,3.389,19.884,3.278,29.961c-0.326,11.802-2.333,23.942-8.176,34.356
		C940.656,1533.24,935.719,1539.144,930.307,1544.506z"/>
	<path d="M1325.292,1357.514c-3.763,23.807-7.525,47.613-11.288,71.419c-8.492-1.333-16.979-2.717-25.481-4.008
		c3.036-19.691,6.338-39.344,9.204-59.061c0.93-8.069,2.273-16.151,2.001-24.303c-0.515-7.17-3.623-13.855-7.204-19.979
		c-3.984-6.433-8.577-12.491-13.652-18.103c-4.473-5.489-11.471-7.71-17.783-10.332c1.364-8.487,2.673-16.974,4.055-25.454
		c9.972,1.33,19.957,5.029,27.287,12.118c7.201,7.006,14.429,14.095,20.263,22.313c6.673,9.74,12.185,20.74,13.58,32.6
		C1327.042,1342.318,1326.518,1349.995,1325.292,1357.514z"/>
	<path d="M1534.929,974.069c10.949,21.471,21.898,42.943,32.847,64.414c-7.653,3.913-15.333,7.782-22.971,11.735
		c-9.118-17.715-17.998-35.555-27.269-53.192c-3.99-7.074-7.654-14.403-12.666-20.838c-4.631-5.498-11.075-9.08-17.572-11.929
		c-7.004-2.863-14.281-5.064-21.685-6.622c-6.845-1.812-13.812,0.505-20.46,2.094c-3.885-7.668-7.815-15.303-11.681-22.976
		c8.849-4.785,19.101-7.662,29.199-6.235c9.944,1.435,19.958,2.922,29.508,6.141c11.124,3.957,22.049,9.617,30.148,18.392
		C1527.413,960.746,1531.502,967.265,1534.929,974.069z"/>
	<path d="M1479.146,540.633c21.479,10.935,42.957,21.87,64.436,32.805c-3.892,7.664-7.831,15.308-11.686,22.995
		c-17.789-8.972-35.459-18.186-53.327-27.005c-7.386-3.378-14.658-7.153-22.495-9.413c-6.978-1.726-14.297-0.836-21.228,0.678
		c-7.349,1.801-14.53,4.297-21.436,7.389c-6.603,2.558-10.877,8.527-15.322,13.72c-7.65-3.92-15.318-7.787-22.955-11.722
		c4.347-9.073,10.95-17.426,19.958-22.207c8.888-4.684,17.864-9.367,27.482-12.376c11.325-3.337,23.491-5.18,35.201-2.841
		C1465.234,534.272,1472.375,537.143,1479.146,540.633z"/>
	<path d="M1179.25,222.764c23.804-3.778,47.608-7.556,71.412-11.334c1.356,8.488,2.663,16.988,4.062,25.473
		c-19.665,3.198-39.377,6.13-59.015,9.497c-7.961,1.609-16.063,2.829-23.732,5.607c-6.66,2.705-12.058,7.727-16.775,13.026
		c-4.887,5.776-9.229,12.017-12.999,18.578c-3.838,5.951-3.788,13.292-4.331,20.106c-8.493,1.325-16.969,2.703-25.461,4.009
		c-1.817-9.895-1.384-20.534,3.093-29.697c4.437-9.014,8.946-18.078,14.959-26.166c7.201-9.356,15.96-17.998,26.808-22.989
		C1164.256,225.796,1171.72,223.921,1179.25,222.764z"/>
	<path d="M930.307,141.878c-17.037-17.048-34.074-34.096-51.111-51.145c-6.086,6.07-12.139,12.178-18.259,18.22
		c14.03,14.146,28.253,28.104,42.162,42.372c5.495,5.981,11.332,11.73,15.904,18.485c3.798,6.103,5.213,13.339,5.915,20.398
		c0.558,7.546,0.404,15.147-0.404,22.67c-0.392,7.07-4.748,12.98-8.314,18.812c6.092,6.064,12.139,12.161,18.242,18.209
		c7.286-6.938,13.19-15.799,14.953-25.843c1.708-9.901,3.389-19.884,3.278-29.961c-0.326-11.802-2.333-23.942-8.176-34.356
		C940.656,153.144,935.719,147.24,930.307,141.878z"/>
	<path d="M500.847,222.764c-23.804-3.778-47.608-7.556-71.412-11.334c-1.356,8.488-2.663,16.988-4.062,25.473
		c19.665,3.198,39.377,6.13,59.015,9.497c7.961,1.609,16.063,2.829,23.732,5.607c6.66,2.705,12.058,7.727,16.775,13.026
		c4.887,5.776,9.229,12.017,12.999,18.578c3.838,5.951,3.788,13.292,4.331,20.106c8.493,1.325,16.969,2.703,25.461,4.009
		c1.817-9.895,1.384-20.534-3.093-29.697c-4.437-9.014-8.946-18.078-14.959-26.166c-7.201-9.356-15.96-17.998-26.808-22.989
		C515.841,225.796,508.377,223.921,500.847,222.764z"/>
	<path d="M200.95,540.633c-21.479,10.935-42.957,21.87-64.436,32.805c3.892,7.664,7.831,15.308,11.686,22.995
		c17.789-8.972,35.459-18.186,53.327-27.005c7.386-3.378,14.658-7.153,22.495-9.413c6.978-1.726,14.297-0.836,21.228,0.678
		c7.349,1.801,14.53,4.297,21.436,7.389c6.603,2.558,10.877,8.527,15.322,13.72c7.65-3.92,15.318-7.787,22.955-11.722
		c-4.347-9.073-10.95-17.426-19.958-22.207c-8.888-4.684-17.864-9.367-27.482-12.376c-11.325-3.337-23.491-5.18-35.201-2.841
		C214.863,534.272,207.722,537.143,200.95,540.633z"/>
	<path d="M145.167,974.069c-10.949,21.471-21.898,42.943-32.847,64.414c7.653,3.913,15.333,7.782,22.971,11.735
		c9.118-17.715,17.998-35.555,27.269-53.192c3.991-7.074,7.654-14.403,12.666-20.838c4.631-5.498,11.075-9.08,17.572-11.929
		c7.004-2.863,14.281-5.064,21.685-6.622c6.845-1.812,13.812,0.505,20.46,2.094c3.885-7.668,7.815-15.303,11.681-22.976
		c-8.849-4.785-19.101-7.662-29.199-6.235c-9.944,1.435-19.958,2.922-29.508,6.141c-11.124,3.957-22.049,9.617-30.148,18.392
		C152.684,960.746,148.595,967.265,145.167,974.069z"/>
	<path d="M354.805,1357.514c3.763,23.807,7.525,47.613,11.288,71.419c8.492-1.333,16.979-2.717,25.481-4.008
		c-3.036-19.691-6.338-39.344-9.204-59.061c-0.93-8.069-2.273-16.151-2.001-24.303c0.515-7.17,3.623-13.855,7.204-19.979
		c3.984-6.433,8.576-12.491,13.652-18.103c4.473-5.489,11.471-7.71,17.783-10.332c-1.364-8.487-2.673-16.974-4.055-25.454
		c-9.972,1.33-19.957,5.029-27.288,12.118c-7.201,7.006-14.429,14.095-20.263,22.313c-6.673,9.74-12.185,20.74-13.58,32.6
		C353.055,1342.318,353.579,1349.995,354.805,1357.514z"/>
	<path d="M749.79,1544.506c17.037,17.048,34.074,34.096,51.111,51.145c6.086-6.07,12.139-12.178,18.259-18.22
		c-14.03-14.146-28.253-28.104-42.162-42.372c-5.495-5.981-11.332-11.73-15.904-18.485c-3.798-6.103-5.213-13.339-5.915-20.398
		c-0.558-7.546-0.404-15.146,0.404-22.67c0.393-7.07,4.749-12.98,8.314-18.812c-6.092-6.064-12.139-12.161-18.242-18.209
		c-7.286,6.938-13.19,15.799-14.953,25.843c-1.708,9.901-3.389,19.884-3.278,29.961c0.326,11.802,2.333,23.942,8.176,34.356
		C739.441,1533.24,744.378,1539.144,749.79,1544.506z"/>
	<path d="M1179.25,1463.62c23.804,3.778,47.608,7.556,71.412,11.334c1.356-8.488,2.663-16.988,4.062-25.473
		c-19.665-3.198-39.377-6.13-59.015-9.497c-7.961-1.609-16.063-2.829-23.732-5.607c-6.66-2.705-12.058-7.727-16.775-13.026
		c-4.887-5.776-9.229-12.017-12.999-18.578c-3.838-5.951-3.788-13.292-4.331-20.106c-8.493-1.325-16.969-2.703-25.461-4.009
		c-1.817,9.895-1.384,20.534,3.093,29.697c4.437,9.014,8.946,18.078,14.959,26.166c7.201,9.356,15.96,17.998,26.808,22.989
		C1164.256,1460.588,1171.72,1462.463,1179.25,1463.62z"/>
	<path d="M1479.146,1145.751c21.479-10.935,42.957-21.87,64.436-32.805c-3.892-7.664-7.831-15.308-11.686-22.995
		c-17.789,8.972-35.459,18.186-53.327,27.005c-7.386,3.378-14.658,7.153-22.495,9.413c-6.978,1.726-14.297,0.836-21.228-0.678
		c-7.349-1.801-14.53-4.297-21.436-7.389c-6.603-2.558-10.877-8.527-15.322-13.72c-7.65,3.92-15.318,7.787-22.955,11.722
		c4.347,9.073,10.95,17.426,19.958,22.207c8.888,4.684,17.864,9.367,27.482,12.376c11.325,3.337,23.491,5.18,35.201,2.841
		C1465.234,1152.112,1472.375,1149.241,1479.146,1145.751z"/>
	<path d="M1534.929,712.315c10.949-21.471,21.898-42.943,32.847-64.414c-7.653-3.913-15.333-7.782-22.971-11.735
		c-9.118,17.715-17.998,35.555-27.269,53.192c-3.99,7.074-7.654,14.402-12.666,20.838c-4.631,5.498-11.075,9.08-17.572,11.929
		c-7.004,2.863-14.281,5.064-21.685,6.622c-6.845,1.812-13.812-0.505-20.46-2.094c-3.885,7.668-7.815,15.303-11.681,22.976
		c8.849,4.785,19.101,7.662,29.199,6.235c9.944-1.435,19.958-2.922,29.508-6.141c11.124-3.957,22.049-9.617,30.148-18.392
		C1527.413,725.638,1531.502,719.119,1534.929,712.315z"/>
	<path d="M1325.292,328.87c-3.763-23.806-7.525-47.613-11.288-71.419c-8.492,1.333-16.979,2.717-25.481,4.008
		c3.036,19.691,6.338,39.344,9.204,59.061c0.93,8.069,2.273,16.151,2.001,24.303c-0.515,7.17-3.623,13.855-7.204,19.979
		c-3.984,6.433-8.577,12.491-13.652,18.103c-4.473,5.489-11.471,7.71-17.783,10.332c1.364,8.487,2.673,16.974,4.055,25.454
		c9.972-1.33,19.957-5.029,27.287-12.118c7.201-7.006,14.429-14.095,20.263-22.313c6.673-9.74,12.185-20.74,13.58-32.6
		C1327.042,344.067,1326.518,336.389,1325.292,328.87z"/>
	<path d="M840.048,190.688c-4.761-4.755-9.528-9.506-14.255-14.293c4.752-4.745,9.504-9.49,14.255-14.235
		c4.751,4.745,9.503,9.49,14.255,14.235C849.577,181.182,844.809,185.932,840.048,190.688z"/>
	<path d="M1223.581,315.305c-1.056-6.645-2.121-13.291-3.131-19.942c6.633-1.045,13.266-2.091,19.9-3.137
		c1.055,6.632,2.11,13.264,3.166,19.895C1236.877,313.215,1230.228,314.256,1223.581,315.305z"/>
	<path d="M1460.617,641.557c3.052-5.997,6.096-11.999,9.189-17.974c5.981,3.053,11.962,6.106,17.943,9.159
		c-3.045,5.985-6.089,11.971-9.133,17.956C1472.602,647.681,1466.611,644.615,1460.617,641.557z"/>
	<path d="M1460.617,1044.827c5.994-3.058,11.985-6.124,17.999-9.141c3.044,5.986,6.088,11.971,9.133,17.956
		c-5.981,3.052-11.962,6.105-17.943,9.159C1466.713,1056.826,1463.669,1050.824,1460.617,1044.827z"/>
	<path d="M1223.581,1371.079c6.647,1.049,13.296,2.09,19.934,3.185c-1.056,6.632-2.111,13.263-3.166,19.895
		c-6.633-1.046-13.266-2.092-19.9-3.137C1221.46,1384.37,1222.525,1377.725,1223.581,1371.079z"/>
	<path d="M840.048,1495.697c4.761,4.755,9.528,9.506,14.255,14.293c-4.752,4.745-9.504,9.49-14.255,14.235
		c-4.751-4.745-9.503-9.49-14.255-14.235C830.52,1505.202,835.288,1500.452,840.048,1495.697z"/>
	<path d="M456.516,1371.079c1.056,6.645,2.121,13.291,3.131,19.943c-6.633,1.045-13.267,2.091-19.9,3.137
		c-1.055-6.632-2.11-13.264-3.166-19.895C443.22,1373.169,449.869,1372.128,456.516,1371.079z"/>
	<path d="M219.48,1044.827c-3.052,5.997-6.096,11.999-9.189,17.974c-5.981-3.053-11.962-6.106-17.943-9.159
		c3.045-5.985,6.089-11.971,9.133-17.956C207.495,1038.703,213.486,1041.769,219.48,1044.827z"/>
	<path d="M219.48,641.557c-5.994,3.058-11.985,6.124-17.999,9.141c-3.044-5.986-6.088-11.971-9.133-17.956
		c5.981-3.052,11.962-6.105,17.943-9.159C213.384,629.558,216.428,635.56,219.48,641.557z"/>
	<path d="M456.516,315.305c-6.647-1.049-13.296-2.09-19.934-3.185c1.056-6.632,2.111-13.263,3.166-19.895
		c6.633,1.046,13.266,2.092,19.9,3.137C458.637,302.014,457.572,308.659,456.516,315.305z"/>
	<path d="M840.048,233.79c-23.15-23.161-46.333-46.285-69.457-69.463c6.186-5.965,12.051-12.255,18.181-18.281
		c17.1,17.083,34.188,34.177,51.276,51.271c17.088-17.095,34.176-34.188,51.276-51.271c6.13,6.025,11.996,12.316,18.181,18.281
		C886.381,187.505,863.198,210.629,840.048,233.79z"/>
	<path d="M1198.246,350.175c-5.115-32.345-10.278-64.679-15.363-97.023c8.51-1.19,16.953-2.832,25.454-4.103
		c3.793,23.872,7.57,47.744,11.346,71.619c23.873-3.786,47.744-7.571,71.62-11.34c1.418,8.478,2.465,17.015,3.964,25.476
		C1262.935,339.964,1230.588,345.045,1198.246,350.175z"/>
	<path d="M1419.624,654.876c14.874-29.174,29.702-58.368,44.6-87.523c7.584,4.04,15.38,7.674,23.005,11.642
		c-10.963,21.542-21.939,43.076-32.917,64.61c21.539,10.969,43.076,21.939,64.607,32.922c-3.836,7.692-8.007,15.214-11.768,22.941
		C1477.961,684.638,1448.805,669.736,1419.624,654.876z"/>
	<path d="M1419.624,1031.508c29.181-14.859,58.337-29.762,87.527-44.592c3.761,7.726,7.932,15.248,11.768,22.941
		c-21.531,10.984-43.068,21.953-64.607,32.922c10.978,21.534,21.954,43.068,32.917,64.61c-7.625,3.968-15.42,7.603-23.005,11.642
		C1449.326,1089.875,1434.498,1060.681,1419.624,1031.508z"/>
	<path d="M1198.246,1336.209c32.342,5.13,64.689,10.212,97.021,15.371c-1.498,8.461-2.546,16.998-3.964,25.476
		c-23.875-3.77-47.747-7.554-71.62-11.34c-3.776,23.874-7.554,47.747-11.346,71.619c-8.501-1.271-16.944-2.913-25.454-4.103
		C1187.968,1400.887,1193.131,1368.553,1198.246,1336.209z"/>
	<path d="M840.048,1452.594c23.15,23.161,46.332,46.285,69.457,69.463c-6.186,5.965-12.051,12.255-18.181,18.281
		c-17.1-17.083-34.188-34.177-51.276-51.271c-17.088,17.095-34.176,34.188-51.276,51.271c-6.13-6.025-11.996-12.316-18.181-18.281
		C793.716,1498.879,816.899,1475.755,840.048,1452.594z"/>
	<path d="M481.851,1336.209c5.115,32.344,10.278,64.679,15.363,97.023c-8.51,1.19-16.953,2.832-25.454,4.103
		c-3.793-23.872-7.57-47.745-11.346-71.619c-23.872,3.786-47.744,7.571-71.619,11.34c-1.418-8.478-2.465-17.015-3.964-25.476
		C417.162,1346.42,449.509,1341.339,481.851,1336.209z"/>
	<path d="M260.473,1031.508c-14.874,29.174-29.702,58.368-44.6,87.523c-7.584-4.04-15.38-7.674-23.005-11.642
		c10.963-21.542,21.939-43.076,32.917-64.61c-21.539-10.969-43.076-21.939-64.607-32.922c3.836-7.692,8.007-15.214,11.768-22.941
		C202.136,1001.746,231.292,1016.648,260.473,1031.508z"/>
	<path d="M260.473,654.876c-29.181,14.859-58.337,29.762-87.527,44.592c-3.761-7.726-7.932-15.248-11.768-22.941
		c21.531-10.984,43.068-21.953,64.607-32.922c-10.978-21.534-21.954-43.068-32.917-64.61c7.625-3.968,15.42-7.603,23.005-11.642
		C230.771,596.509,245.599,625.703,260.473,654.876z"/>
	<path d="M481.851,350.175c-32.342-5.131-64.689-10.212-97.022-15.371c1.498-8.461,2.546-16.998,3.964-25.476
		c23.875,3.77,47.747,7.554,71.619,11.34c3.776-23.874,7.554-47.747,11.346-71.619c8.501,1.271,16.944,2.913,25.454,4.103
		C492.129,285.497,486.966,317.831,481.851,350.175z"/>
	<path d="M748.69,253.548c17.391-17.43,34.809-34.832,52.211-52.256c6.086,6.07,12.145,12.178,18.259,18.22
		c-12.676,12.764-25.478,25.401-38.104,38.209c-5.434,5.589-10.835,11.227-15.871,17.181c-2.266,2.803-4.544,5.666-5.987,8.994
		c-2.969,6.683-4.002,14.063-4.268,21.321c-0.199,7.391-0.005,14.837,1.227,22.139c1.57,5.417,4.776,10.155,7.739,14.892
		c-6.092,6.064-12.139,12.161-18.242,18.209c-7.319-6.971-13.25-15.882-14.975-25.987c-2.178-12.543-4.268-25.335-2.742-38.088
		c0.652-6.153,1.957-12.25,3.975-18.098C735.34,268.788,741.719,260.701,748.69,253.548z"/>
	<path d="M419.553,419.859c3.825-24.323,7.688-48.64,11.525-72.965c8.492,1.333,16.983,2.714,25.481,4.008
		c-2.752,17.777-5.682,35.526-8.368,53.309c-1.111,7.715-2.166,15.452-2.741,23.228c-0.186,3.6-0.346,7.255,0.443,10.795
		c1.527,7.152,5.028,13.73,9.08,19.758c4.183,6.096,8.716,12.007,14.006,17.19c4.454,3.46,9.833,5.408,15.015,7.499
		c-1.364,8.487-2.673,16.974-4.055,25.454c-10.018-1.337-20.055-5.06-27.39-12.222c-9.135-8.867-18.344-17.988-24.605-29.202
		c-3.089-5.361-5.617-11.061-7.422-16.978C417.711,440.036,418.118,429.743,419.553,419.859z"/>
	<path d="M251.032,747.869c-11.202-21.926-22.37-43.869-33.564-65.804c7.653-3.913,15.335-7.787,22.971-11.735
		c8.222,15.999,16.284,32.081,24.564,48.046c3.636,6.895,7.33,13.774,11.436,20.403c1.965,3.022,3.985,6.073,6.704,8.473
		c5.439,4.888,12.138,8.152,18.959,10.647c6.968,2.473,14.109,4.59,21.435,5.674c5.637,0.181,11.134-1.404,16.555-2.758
		c3.885,7.668,7.815,15.303,11.681,22.976c-8.891,4.807-19.199,7.694-29.343,6.212c-12.602-1.805-25.413-3.77-37.071-9.162
		c-5.65-2.522-11.046-5.647-15.984-9.373C261.401,765.276,255.681,756.709,251.032,747.869z"/>
	<path d="M307.495,1112.29c-21.951-11.154-43.884-22.342-65.832-33.508c3.892-7.664,7.829-15.314,11.686-22.995
		c16.056,8.111,32.031,16.382,48.114,24.432c6.994,3.441,14.026,6.835,21.244,9.785c3.366,1.289,6.793,2.571,10.404,2.914
		c7.273,0.758,14.612-0.539,21.596-2.53c7.091-2.095,14.113-4.58,20.677-8.009c4.667-3.167,8.182-7.68,11.772-11.962
		c7.65,3.92,15.318,7.787,22.955,11.722c-4.368,9.115-11.01,17.51-20.087,22.273c-11.256,5.947-22.776,11.887-35.376,14.377
		c-6.053,1.281-12.255,1.924-18.441,1.813C326.115,1120.277,316.452,1116.709,307.495,1112.29z"/>
	<path d="M567.375,1373.924c-24.314,3.879-48.635,7.719-72.955,11.587c-1.356-8.488-2.667-16.991-4.062-25.473
		c17.757-2.876,35.543-5.574,53.286-8.515c7.681-1.327,15.365-2.715,22.938-4.571c3.481-0.935,7.007-1.913,10.13-3.757
		c6.33-3.662,11.504-9.025,15.985-14.741c4.505-5.862,8.725-12,12.02-18.633c1.914-5.306,2.105-11.023,2.492-16.597
		c8.493-1.325,16.969-2.703,25.461-4.009c1.824,9.941,1.385,20.637-3.16,29.826c-5.61,11.428-11.439,23.005-20.169,32.425
		c-4.144,4.594-8.783,8.76-13.854,12.306C587.134,1369.441,577.219,1372.234,567.375,1373.924z"/>
	<path d="M931.407,1432.836c-17.391,17.43-34.81,34.832-52.211,52.256c-6.086-6.07-12.145-12.178-18.259-18.22
		c12.676-12.764,25.478-25.401,38.104-38.209c5.434-5.589,10.835-11.227,15.871-17.181c2.266-2.803,4.544-5.666,5.987-8.994
		c2.969-6.683,4.002-14.063,4.268-21.321c0.199-7.391,0.006-14.837-1.227-22.139c-1.57-5.417-4.776-10.155-7.739-14.892
		c6.092-6.064,12.139-12.161,18.242-18.209c7.319,6.971,13.25,15.882,14.975,25.987c2.178,12.543,4.268,25.335,2.742,38.088
		c-0.652,6.153-1.957,12.25-3.975,18.099C944.757,1417.596,938.378,1425.683,931.407,1432.836z"/>
	<path d="M1260.544,1266.525c-3.825,24.323-7.688,48.64-11.525,72.965c-8.492-1.333-16.984-2.714-25.481-4.008
		c2.752-17.777,5.682-35.526,8.368-53.309c1.111-7.715,2.166-15.452,2.741-23.228c0.186-3.6,0.346-7.255-0.443-10.795
		c-1.527-7.152-5.028-13.73-9.08-19.758c-4.183-6.096-8.716-12.007-14.006-17.19c-4.454-3.46-9.833-5.408-15.015-7.499
		c1.364-8.487,2.673-16.974,4.055-25.454c10.018,1.337,20.055,5.06,27.39,12.222c9.135,8.867,18.344,17.988,24.605,29.202
		c3.089,5.361,5.617,11.061,7.422,16.978C1262.386,1246.348,1261.979,1256.641,1260.544,1266.525z"/>
	<path d="M1429.065,938.515c11.203,21.926,22.37,43.869,33.564,65.804c-7.653,3.913-15.335,7.787-22.971,11.735
		c-8.222-16-16.284-32.081-24.564-48.046c-3.636-6.895-7.33-13.774-11.436-20.403c-1.965-3.022-3.985-6.073-6.704-8.473
		c-5.439-4.888-12.138-8.152-18.959-10.647c-6.968-2.473-14.109-4.59-21.435-5.674c-5.637-0.181-11.134,1.404-16.555,2.758
		c-3.885-7.668-7.815-15.303-11.681-22.976c8.891-4.807,19.199-7.694,29.343-6.212c12.602,1.805,25.413,3.77,37.071,9.162
		c5.65,2.522,11.046,5.647,15.984,9.373C1418.696,921.109,1424.416,929.675,1429.065,938.515z"/>
	<path d="M1372.602,574.094c21.951,11.154,43.884,22.342,65.832,33.508c-3.892,7.664-7.829,15.314-11.686,22.995
		c-16.056-8.111-32.031-16.382-48.114-24.432c-6.994-3.441-14.026-6.835-21.244-9.785c-3.366-1.289-6.793-2.571-10.404-2.914
		c-7.273-0.758-14.611,0.539-21.596,2.53c-7.091,2.095-14.113,4.58-20.677,8.009c-4.667,3.167-8.182,7.68-11.772,11.962
		c-7.65-3.92-15.318-7.787-22.955-11.722c4.368-9.115,11.01-17.51,20.087-22.273c11.256-5.947,22.776-11.888,35.376-14.377
		c6.053-1.281,12.255-1.924,18.441-1.813C1353.982,566.107,1363.645,569.675,1372.602,574.094z"/>
	<path d="M1112.722,312.46c24.314-3.879,48.635-7.719,72.955-11.587c1.356,8.488,2.667,16.991,4.062,25.473
		c-17.757,2.876-35.543,5.574-53.286,8.515c-7.681,1.327-15.365,2.715-22.938,4.571c-3.481,0.935-7.007,1.913-10.13,3.757
		c-6.33,3.662-11.504,9.025-15.985,14.741c-4.505,5.862-8.725,12-12.02,18.633c-1.914,5.306-2.105,11.023-2.492,16.597
		c-8.493,1.325-16.969,2.703-25.461,4.009c-1.824-9.941-1.385-20.637,3.16-29.826c5.61-11.428,11.439-23.004,20.169-32.425
		c4.144-4.594,8.783-8.76,13.854-12.306C1092.963,316.943,1102.878,314.15,1112.722,312.46z"/>
	<path d="M931.407,253.548c-17.391-17.43-34.81-34.832-52.211-52.256c-6.086,6.07-12.145,12.178-18.259,18.22
		c12.676,12.764,25.478,25.401,38.104,38.209c5.434,5.589,10.835,11.227,15.871,17.181c2.266,2.803,4.544,5.666,5.987,8.994
		c2.969,6.683,4.002,14.063,4.268,21.321c0.199,7.391,0.006,14.837-1.227,22.139c-1.57,5.417-4.776,10.155-7.739,14.892
		c6.092,6.064,12.139,12.161,18.242,18.209c7.319-6.971,13.25-15.882,14.975-25.987c2.178-12.543,4.268-25.335,2.742-38.088
		c-0.652-6.153-1.957-12.25-3.975-18.098C944.757,268.788,938.378,260.701,931.407,253.548z"/>
	<path d="M567.375,312.46c-24.314-3.879-48.635-7.719-72.955-11.587c-1.356,8.488-2.667,16.991-4.062,25.473
		c17.757,2.876,35.543,5.574,53.286,8.515c7.681,1.327,15.365,2.715,22.938,4.571c3.481,0.935,7.007,1.913,10.13,3.757
		c6.33,3.662,11.504,9.025,15.985,14.741c4.505,5.862,8.725,12,12.02,18.633c1.914,5.306,2.105,11.023,2.492,16.597
		c8.493,1.325,16.969,2.703,25.461,4.009c1.824-9.941,1.385-20.637-3.16-29.826c-5.61-11.428-11.439-23.004-20.169-32.425
		c-4.144-4.594-8.783-8.76-13.854-12.306C587.134,316.943,577.219,314.15,567.375,312.46z"/>
	<path d="M307.495,574.094c-21.951,11.154-43.884,22.342-65.832,33.508c3.892,7.664,7.829,15.314,11.686,22.995
		c16.056-8.111,32.031-16.382,48.114-24.432c6.994-3.441,14.026-6.835,21.244-9.785c3.366-1.289,6.793-2.571,10.404-2.914
		c7.273-0.758,14.612,0.539,21.596,2.53c7.091,2.095,14.113,4.58,20.677,8.009c4.667,3.167,8.182,7.68,11.772,11.962
		c7.65-3.92,15.318-7.787,22.955-11.722c-4.368-9.115-11.01-17.51-20.087-22.273c-11.256-5.947-22.776-11.888-35.376-14.377
		c-6.053-1.281-12.255-1.924-18.441-1.813C326.115,566.107,316.452,569.675,307.495,574.094z"/>
	<path d="M251.032,938.515c-11.202,21.926-22.37,43.869-33.564,65.804c7.653,3.913,15.335,7.787,22.971,11.735
		c8.222-16,16.284-32.081,24.564-48.046c3.636-6.895,7.33-13.774,11.436-20.403c1.965-3.022,3.985-6.073,6.704-8.473
		c5.439-4.888,12.138-8.152,18.959-10.647c6.968-2.473,14.109-4.59,21.435-5.674c5.637-0.181,11.134,1.404,16.555,2.758
		c3.885-7.668,7.815-15.303,11.681-22.976c-8.891-4.807-19.199-7.694-29.343-6.212c-12.602,1.805-25.413,3.77-37.071,9.162
		c-5.65,2.522-11.046,5.647-15.984,9.373C261.401,921.109,255.681,929.675,251.032,938.515z"/>
	<path d="M419.553,1266.525c3.825,24.323,7.688,48.64,11.525,72.965c8.492-1.333,16.983-2.714,25.481-4.008
		c-2.752-17.777-5.682-35.526-8.368-53.309c-1.111-7.715-2.166-15.452-2.741-23.228c-0.186-3.6-0.346-7.255,0.443-10.795
		c1.527-7.152,5.028-13.73,9.08-19.758c4.183-6.096,8.716-12.007,14.006-17.19c4.454-3.46,9.833-5.408,15.015-7.499
		c-1.364-8.487-2.673-16.974-4.055-25.454c-10.018,1.337-20.055,5.06-27.39,12.222c-9.135,8.867-18.344,17.988-24.605,29.202
		c-3.089,5.361-5.617,11.061-7.422,16.978C417.711,1246.348,418.118,1256.641,419.553,1266.525z"/>
	<path d="M748.69,1432.836c17.391,17.43,34.809,34.832,52.211,52.256c6.086-6.07,12.145-12.178,18.259-18.22
		c-12.676-12.764-25.478-25.401-38.104-38.209c-5.434-5.589-10.835-11.227-15.871-17.181c-2.266-2.803-4.544-5.666-5.987-8.994
		c-2.969-6.683-4.002-14.063-4.268-21.321c-0.199-7.391-0.005-14.837,1.227-22.139c1.57-5.417,4.776-10.155,7.739-14.892
		c-6.092-6.064-12.139-12.161-18.242-18.209c-7.319,6.971-13.25,15.882-14.975,25.987c-2.178,12.543-4.268,25.335-2.742,38.088
		c0.652,6.153,1.957,12.25,3.975,18.099C735.34,1417.596,741.719,1425.683,748.69,1432.836z"/>
	<path d="M1112.722,1373.924c24.314,3.879,48.635,7.719,72.955,11.587c1.356-8.488,2.667-16.991,4.062-25.473
		c-17.757-2.876-35.543-5.574-53.286-8.515c-7.681-1.327-15.365-2.715-22.938-4.571c-3.481-0.935-7.007-1.913-10.13-3.757
		c-6.33-3.662-11.504-9.025-15.985-14.741c-4.505-5.862-8.725-12-12.02-18.633c-1.914-5.306-2.105-11.023-2.492-16.597
		c-8.493-1.325-16.969-2.703-25.461-4.009c-1.824,9.941-1.385,20.637,3.16,29.826c5.61,11.428,11.439,23.005,20.169,32.425
		c4.144,4.594,8.783,8.76,13.854,12.306C1092.963,1369.441,1102.878,1372.234,1112.722,1373.924z"/>
	<path d="M1372.602,1112.29c21.951-11.154,43.884-22.342,65.832-33.508c-3.892-7.664-7.829-15.314-11.686-22.995
		c-16.056,8.111-32.031,16.382-48.114,24.432c-6.994,3.441-14.026,6.835-21.244,9.785c-3.366,1.289-6.793,2.571-10.404,2.914
		c-7.273,0.758-14.611-0.539-21.596-2.53c-7.091-2.095-14.113-4.58-20.677-8.009c-4.667-3.167-8.182-7.68-11.772-11.962
		c-7.65,3.92-15.318,7.787-22.955,11.722c4.368,9.115,11.01,17.51,20.087,22.273c11.256,5.947,22.776,11.887,35.376,14.377
		c6.053,1.281,12.255,1.924,18.441,1.813C1353.982,1120.277,1363.645,1116.709,1372.602,1112.29z"/>
	<path d="M1429.065,747.869c11.203-21.926,22.37-43.869,33.564-65.804c-7.653-3.913-15.335-7.787-22.971-11.735
		c-8.222,15.999-16.284,32.081-24.564,48.046c-3.636,6.895-7.33,13.774-11.436,20.403c-1.965,3.022-3.985,6.073-6.704,8.473
		c-5.439,4.888-12.138,8.152-18.959,10.647c-6.968,2.473-14.109,4.59-21.435,5.674c-5.637,0.181-11.134-1.404-16.555-2.758
		c-3.885,7.668-7.815,15.303-11.681,22.976c8.891,4.807,19.199,7.694,29.343,6.212c12.602-1.805,25.413-3.77,37.071-9.162
		c5.65-2.522,11.046-5.647,15.984-9.373C1418.696,765.276,1424.416,756.709,1429.065,747.869z"/>
	<path d="M1260.544,419.859c-3.825-24.323-7.688-48.64-11.525-72.965c-8.492,1.333-16.984,2.714-25.481,4.008
		c2.752,17.777,5.682,35.526,8.368,53.309c1.111,7.715,2.166,15.452,2.741,23.228c0.186,3.6,0.346,7.255-0.443,10.795
		c-1.527,7.152-5.028,13.73-9.08,19.758c-4.183,6.096-8.716,12.007-14.006,17.19c-4.454,3.46-9.833,5.408-15.015,7.499
		c1.364,8.487,2.673,16.974,4.055,25.454c10.018-1.337,20.055-5.06,27.39-12.222c9.135-8.867,18.344-17.988,24.605-29.202
		c3.089-5.361,5.617-11.061,7.422-16.978C1262.386,440.036,1261.979,429.743,1260.544,419.859z"/>
	<path d="M840.048,301.246c-4.761-4.755-9.528-9.506-14.255-14.293c4.753-4.743,9.505-9.487,14.255-14.233
		c4.75,4.745,9.502,9.49,14.255,14.233C849.577,291.741,844.809,296.491,840.048,301.246z"/>
	<path d="M1158.596,404.749c-1.056-6.645-2.121-13.291-3.131-19.942c6.633-1.043,13.266-2.089,19.899-3.136
		c1.054,6.631,2.109,13.263,3.167,19.894C1171.892,402.659,1165.243,403.7,1158.596,404.749z"/>
	<path d="M1355.469,675.722c3.052-5.997,6.096-11.999,9.189-17.974c5.98,3.055,11.96,6.108,17.941,9.159
		c-3.045,5.984-6.089,11.969-9.131,17.956C1367.454,681.846,1361.463,678.78,1355.469,675.722z"/>
	<path d="M1355.469,1010.662c5.994-3.058,11.985-6.124,17.999-9.141c3.042,5.986,6.086,11.971,9.131,17.956
		c-5.981,3.052-11.962,6.104-17.941,9.159C1361.566,1022.662,1358.521,1016.66,1355.469,1010.662z"/>
	<path d="M1158.596,1281.635c6.647,1.049,13.296,2.09,19.934,3.185c-1.057,6.631-2.113,13.262-3.167,19.894
		c-6.633-1.047-13.265-2.092-19.899-3.136C1156.475,1294.926,1157.54,1288.281,1158.596,1281.635z"/>
	<path d="M840.048,1385.138c4.761,4.755,9.528,9.506,14.255,14.293c-4.753,4.743-9.505,9.487-14.255,14.233
		c-4.75-4.745-9.502-9.49-14.255-14.233C830.52,1394.644,835.288,1389.893,840.048,1385.138z"/>
	<path d="M521.501,1281.635c1.056,6.646,2.121,13.291,3.131,19.943c-6.633,1.043-13.266,2.089-19.898,3.136
		c-1.054-6.631-2.109-13.263-3.167-19.894C508.205,1283.725,514.854,1282.684,521.501,1281.635z"/>
	<path d="M324.628,1010.662c-3.052,5.997-6.096,11.999-9.189,17.974c-5.98-3.055-11.96-6.108-17.941-9.159
		c3.045-5.984,6.089-11.969,9.131-17.956C312.643,1004.538,318.634,1007.604,324.628,1010.662z"/>
	<path d="M324.628,675.722c-5.994,3.058-11.985,6.124-17.999,9.141c-3.042-5.986-6.086-11.971-9.131-17.956
		c5.981-3.051,11.962-6.104,17.941-9.159C318.531,663.722,321.576,669.725,324.628,675.722z"/>
	<path d="M521.501,404.749c-6.647-1.049-13.296-2.09-19.934-3.185c1.057-6.631,2.113-13.262,3.167-19.894
		c6.632,1.047,13.265,2.092,19.898,3.136C523.622,391.458,522.557,398.103,521.501,404.749z"/>
	<path d="M840.048,344.351c-23.15-23.159-46.333-46.287-69.457-69.465c6.18-5.965,12.051-12.255,18.181-18.281
		c17.099,17.083,34.188,34.175,51.276,51.269c17.088-17.094,34.177-34.186,51.276-51.269c6.13,6.025,12.001,12.316,18.181,18.281
		C886.381,298.064,863.198,321.192,840.048,344.351z"/>
	<path d="M1133.26,439.621c-5.116-32.343-10.277-64.68-15.361-97.025c8.506-1.193,16.953-2.832,25.454-4.103
		c3.793,23.871,7.571,47.743,11.348,71.617c23.872-3.786,47.744-7.569,71.618-11.338c1.418,8.478,2.47,17.018,3.964,25.476
		C1197.95,429.408,1165.601,434.492,1133.26,439.621z"/>
	<path d="M1314.475,689.042c14.872-29.173,29.704-58.368,44.602-87.524c7.583,4.035,15.38,7.674,23.005,11.642
		c-10.963,21.541-21.938,43.076-32.915,64.609c21.538,10.969,43.074,21.94,64.605,32.923c-3.836,7.692-8.005,15.22-11.768,22.941
		C1372.813,718.803,1343.654,703.902,1314.475,689.042z"/>
	<path d="M1314.475,997.342c29.179-14.86,58.339-29.761,87.529-44.592c3.763,7.721,7.932,15.248,11.768,22.941
		c-21.53,10.983-43.067,21.954-64.605,32.923c10.977,21.534,21.952,43.068,32.915,64.609c-7.625,3.969-15.422,7.608-23.005,11.642
		C1344.178,1055.711,1329.347,1026.516,1314.475,997.342z"/>
	<path d="M1133.26,1246.763c32.341,5.129,64.691,10.213,97.023,15.373c-1.494,8.458-2.546,16.998-3.964,25.476
		c-23.874-3.769-47.746-7.553-71.618-11.338c-3.776,23.873-7.555,47.746-11.348,71.617c-8.501-1.271-16.948-2.91-25.454-4.103
		C1122.983,1311.443,1128.144,1279.106,1133.26,1246.763z"/>
	<path d="M840.048,1342.033c23.15,23.159,46.332,46.287,69.457,69.465c-6.18,5.965-12.051,12.255-18.181,18.281
		c-17.099-17.083-34.188-34.175-51.276-51.269c-17.088,17.094-34.177,34.186-51.276,51.269c-6.13-6.025-12.001-12.316-18.181-18.281
		C793.716,1388.32,816.899,1365.193,840.048,1342.033z"/>
	<path d="M546.837,1246.763c5.116,32.343,10.277,64.68,15.361,97.025c-8.506,1.193-16.953,2.831-25.454,4.103
		c-3.793-23.871-7.571-47.743-11.348-71.617c-23.872,3.786-47.744,7.569-71.618,11.338c-1.418-8.478-2.47-17.018-3.964-25.476
		C482.146,1256.976,514.496,1251.892,546.837,1246.763z"/>
	<path d="M365.622,997.342c-14.872,29.173-29.704,58.368-44.602,87.524c-7.583-4.035-15.38-7.674-23.005-11.642
		c10.963-21.541,21.938-43.076,32.915-64.609c-21.538-10.969-43.074-21.94-64.605-32.923c3.836-7.692,8.005-15.22,11.768-22.941
		C307.283,967.581,336.443,982.482,365.622,997.342z"/>
	<path d="M365.622,689.042c-29.179,14.86-58.339,29.761-87.529,44.592c-3.763-7.721-7.932-15.248-11.768-22.941
		c21.53-10.983,43.067-21.954,64.605-32.923c-10.977-21.534-21.952-43.068-32.915-64.609c7.625-3.969,15.422-7.608,23.005-11.642
		C335.918,630.673,350.75,659.868,365.622,689.042z"/>
	<path d="M546.837,439.621c-32.341-5.129-64.69-10.213-97.023-15.373c1.494-8.458,2.546-16.998,3.964-25.476
		c23.874,3.769,47.746,7.553,71.618,11.338c3.776-23.873,7.555-47.746,11.348-71.617c8.501,1.271,16.948,2.91,25.454,4.103
		C557.114,374.941,551.953,407.278,546.837,439.621z"/>
	<path d="M748.706,364.09c17.385-17.43,34.798-34.821,52.195-52.239c6.086,6.07,12.139,12.178,18.259,18.22
		c-16.186,16.435-32.88,32.383-48.607,49.265c-4.494,5.174-9.547,10.188-12.029,16.716c-3.046,7.839-3.704,16.357-3.676,24.699
		c0.099,5.849,0.287,11.741,1.393,17.501c1.647,5.268,4.743,9.917,7.656,14.555c-6.092,6.059-12.139,12.161-18.242,18.209
		c-7.286-6.943-13.206-15.81-14.959-25.865c-2.134-12.305-4.196-24.837-2.852-37.347c0.614-6.28,1.896-12.504,3.903-18.485
		C735.124,379.618,741.614,371.365,748.706,364.09z"/>
	<path d="M484.542,509.28c3.82-24.32,7.686-48.624,11.521-72.942c8.492,1.333,16.979,2.717,25.481,4.008
		c-3.435,22.81-7.567,45.525-10.367,68.427c-0.595,6.828-1.735,13.854,0.094,20.594c2.143,8.132,6.618,15.41,11.544,22.143
		c3.518,4.673,7.134,9.33,11.414,13.34c4.429,3.294,9.666,5.235,14.749,7.275c-1.367,8.482-2.673,16.974-4.055,25.454
		c-9.975-1.335-19.977-5.028-27.305-12.133c-8.959-8.701-17.993-17.627-24.26-28.538c-3.195-5.441-5.816-11.231-7.708-17.249
		C482.681,529.826,483.08,519.334,484.542,509.28z"/>
	<path d="M356.169,782.013c-11.204-21.921-22.363-43.855-33.553-65.783c7.653-3.913,15.333-7.782,22.971-11.735
		c10.629,20.472,20.637,41.278,31.833,61.452c3.532,5.873,6.739,12.228,12.181,16.606c6.514,5.319,14.412,8.577,22.354,11.129
		c5.593,1.713,11.256,3.355,17.075,4.083c5.519,0.061,10.897-1.446,16.209-2.784c3.88,7.666,7.815,15.303,11.681,22.976
		c-8.855,4.784-19.117,7.674-29.222,6.234c-12.362-1.773-24.918-3.685-36.4-8.828c-5.783-2.524-11.306-5.667-16.375-9.424
		C366.74,799.729,360.896,791.006,356.169,782.013z"/>
	<path d="M412.622,1078.114c-21.949-11.148-43.87-22.335-65.811-33.497c3.892-7.664,7.831-15.308,11.686-22.995
		c20.632,10.315,40.958,21.264,61.874,31.005c6.31,2.675,12.639,5.931,19.615,6.274c8.396,0.475,16.701-1.532,24.626-4.136
		c5.532-1.902,11.078-3.902,16.214-6.733c4.501-3.195,7.966-7.575,11.477-11.779c7.645,3.922,15.318,7.787,22.955,11.723
		c-4.352,9.075-10.955,17.445-19.977,22.219c-11.044,5.832-22.325,11.666-34.637,14.254c-6.162,1.357-12.478,2.061-18.787,2.001
		C431.587,1086.233,421.732,1082.612,412.622,1078.114z"/>
	<path d="M632.337,1284.483c-24.31,3.882-48.619,7.716-72.932,11.583c-1.356-8.488-2.663-16.988-4.062-25.473
		c22.755-3.782,45.635-6.872,68.281-11.286c6.677-1.544,13.712-2.631,19.557-6.454c7.072-4.551,12.611-11.056,17.492-17.821
		c3.357-4.79,6.669-9.668,9.16-14.978c1.764-5.23,1.992-10.811,2.361-16.276c8.49-1.321,16.969-2.703,25.461-4.009
		c1.813,9.9,1.391,20.553-3.101,29.718c-5.507,11.209-11.204,22.56-19.644,31.891c-4.188,4.72-8.884,9.002-14.023,12.661
		C652.452,1279.904,642.351,1282.767,632.337,1284.483z"/>
	<path d="M931.391,1322.294c-17.385,17.43-34.798,34.821-52.195,52.239c-6.086-6.07-12.139-12.178-18.259-18.22
		c16.186-16.435,32.88-32.383,48.607-49.265c4.494-5.174,9.547-10.188,12.029-16.716c3.046-7.839,3.704-16.357,3.676-24.699
		c-0.099-5.849-0.287-11.741-1.393-17.501c-1.647-5.268-4.743-9.917-7.656-14.555c6.092-6.059,12.139-12.161,18.242-18.209
		c7.286,6.943,13.206,15.81,14.959,25.865c2.134,12.305,4.196,24.837,2.852,37.347c-0.614,6.28-1.896,12.504-3.903,18.485
		C944.973,1306.766,938.483,1315.019,931.391,1322.294z"/>
	<path d="M1195.555,1177.104c-3.82,24.32-7.686,48.624-11.521,72.942c-8.491-1.333-16.979-2.717-25.481-4.008
		c3.435-22.81,7.567-45.525,10.367-68.427c0.595-6.828,1.735-13.854-0.094-20.594c-2.143-8.132-6.618-15.41-11.544-22.143
		c-3.518-4.673-7.134-9.33-11.414-13.34c-4.429-3.294-9.666-5.235-14.749-7.275c1.367-8.482,2.673-16.974,4.055-25.454
		c9.975,1.334,19.977,5.028,27.305,12.133c8.959,8.701,17.993,17.627,24.26,28.538c3.195,5.441,5.816,11.231,7.708,17.249
		C1197.416,1156.558,1197.017,1167.05,1195.555,1177.104z"/>
	<path d="M1323.928,904.371c11.204,21.921,22.363,43.855,33.553,65.783c-7.653,3.913-15.333,7.782-22.971,11.735
		c-10.629-20.472-20.637-41.278-31.833-61.452c-3.532-5.873-6.739-12.228-12.181-16.606c-6.514-5.319-14.412-8.577-22.354-11.129
		c-5.593-1.713-11.255-3.355-17.075-4.083c-5.519-0.061-10.897,1.446-16.209,2.784c-3.88-7.666-7.815-15.303-11.681-22.976
		c8.855-4.784,19.117-7.674,29.222-6.234c12.362,1.773,24.918,3.685,36.4,8.828c5.783,2.524,11.306,5.667,16.375,9.424
		C1313.357,886.655,1319.201,895.378,1323.928,904.371z"/>
	<path d="M1267.475,608.27c21.949,11.148,43.87,22.335,65.811,33.497c-3.892,7.664-7.831,15.308-11.686,22.995
		c-20.632-10.315-40.958-21.264-61.874-31.004c-6.31-2.675-12.64-5.931-19.615-6.274c-8.396-0.475-16.701,1.532-24.626,4.136
		c-5.532,1.902-11.078,3.902-16.214,6.733c-4.501,3.195-7.966,7.575-11.477,11.779c-7.645-3.921-15.318-7.787-22.955-11.722
		c4.352-9.075,10.955-17.445,19.977-22.219c11.044-5.832,22.325-11.665,34.637-14.254c6.162-1.357,12.478-2.061,18.787-2.001
		C1248.51,600.151,1258.365,603.773,1267.475,608.27z"/>
	<path d="M1047.76,401.901c24.31-3.882,48.619-7.716,72.932-11.583c1.356,8.488,2.663,16.988,4.062,25.473
		c-22.755,3.782-45.635,6.872-68.281,11.286c-6.677,1.544-13.712,2.631-19.557,6.454c-7.072,4.551-12.611,11.056-17.492,17.821
		c-3.357,4.79-6.669,9.668-9.16,14.978c-1.764,5.23-1.992,10.811-2.361,16.276c-8.49,1.321-16.969,2.703-25.461,4.009
		c-1.813-9.9-1.391-20.553,3.101-29.718c5.507-11.209,11.204-22.56,19.644-31.891c4.188-4.72,8.884-9.002,14.023-12.661
		C1027.645,406.48,1037.746,403.617,1047.76,401.901z"/>
	<path d="M931.391,364.09c-17.385-17.43-34.798-34.821-52.195-52.239c-6.086,6.07-12.139,12.178-18.259,18.22
		c16.186,16.435,32.88,32.383,48.607,49.265c4.494,5.174,9.547,10.188,12.029,16.716c3.046,7.839,3.704,16.357,3.676,24.699
		c-0.099,5.849-0.287,11.741-1.393,17.501c-1.647,5.268-4.743,9.917-7.656,14.555c6.092,6.059,12.139,12.161,18.242,18.209
		c7.286-6.943,13.206-15.81,14.959-25.865c2.134-12.305,4.196-24.837,2.852-37.347c-0.614-6.28-1.896-12.504-3.903-18.485
		C944.973,379.618,938.483,371.365,931.391,364.09z"/>
	<path d="M632.337,401.901c-24.31-3.882-48.619-7.716-72.932-11.583c-1.356,8.488-2.663,16.988-4.062,25.473
		c22.755,3.782,45.635,6.872,68.281,11.286c6.677,1.544,13.712,2.631,19.557,6.454c7.072,4.551,12.611,11.056,17.492,17.821
		c3.357,4.79,6.669,9.668,9.16,14.978c1.764,5.23,1.992,10.811,2.361,16.276c8.49,1.321,16.969,2.703,25.461,4.009
		c1.813-9.9,1.391-20.553-3.101-29.718c-5.507-11.209-11.204-22.56-19.644-31.891c-4.188-4.72-8.884-9.002-14.023-12.661
		C652.452,406.48,642.351,403.617,632.337,401.901z"/>
	<path d="M412.622,608.27c-21.949,11.148-43.87,22.335-65.811,33.497c3.892,7.664,7.831,15.308,11.686,22.995
		c20.632-10.315,40.958-21.264,61.874-31.004c6.31-2.675,12.639-5.931,19.615-6.274c8.396-0.475,16.701,1.532,24.626,4.136
		c5.532,1.902,11.078,3.902,16.214,6.733c4.501,3.195,7.966,7.575,11.477,11.779c7.645-3.921,15.318-7.787,22.955-11.722
		c-4.352-9.075-10.955-17.445-19.977-22.219c-11.044-5.832-22.325-11.665-34.637-14.254c-6.162-1.357-12.478-2.061-18.787-2.001
		C431.587,600.151,421.732,603.773,412.622,608.27z"/>
	<path d="M356.169,904.371c-11.204,21.921-22.363,43.855-33.553,65.783c7.653,3.913,15.333,7.782,22.971,11.735
		c10.629-20.472,20.637-41.278,31.833-61.452c3.532-5.873,6.739-12.228,12.181-16.606c6.514-5.319,14.412-8.577,22.354-11.129
		c5.593-1.713,11.256-3.355,17.075-4.083c5.519-0.061,10.897,1.446,16.209,2.784c3.88-7.666,7.815-15.303,11.681-22.976
		c-8.855-4.784-19.117-7.674-29.222-6.234c-12.362,1.773-24.918,3.685-36.4,8.828c-5.783,2.524-11.306,5.667-16.375,9.424
		C366.74,886.655,360.896,895.378,356.169,904.371z"/>
	<path d="M484.542,1177.104c3.82,24.32,7.686,48.624,11.521,72.942c8.492-1.333,16.979-2.717,25.481-4.008
		c-3.435-22.81-7.567-45.525-10.367-68.427c-0.595-6.828-1.735-13.854,0.094-20.594c2.143-8.132,6.618-15.41,11.544-22.143
		c3.518-4.673,7.134-9.33,11.414-13.34c4.429-3.294,9.666-5.235,14.749-7.275c-1.367-8.482-2.673-16.974-4.055-25.454
		c-9.975,1.334-19.977,5.028-27.305,12.133c-8.959,8.701-17.993,17.627-24.26,28.538c-3.195,5.441-5.816,11.231-7.708,17.249
		C482.681,1156.558,483.08,1167.05,484.542,1177.104z"/>
	<path d="M748.706,1322.294c17.385,17.43,34.798,34.821,52.195,52.239c6.086-6.07,12.139-12.178,18.259-18.22
		c-16.186-16.435-32.88-32.383-48.607-49.265c-4.494-5.174-9.547-10.188-12.029-16.716c-3.046-7.839-3.704-16.357-3.676-24.699
		c0.099-5.849,0.287-11.741,1.393-17.501c1.647-5.268,4.743-9.917,7.656-14.555c-6.092-6.059-12.139-12.161-18.242-18.209
		c-7.286,6.943-13.206,15.81-14.959,25.865c-2.134,12.305-4.196,24.837-2.852,37.347c0.614,6.28,1.896,12.504,3.903,18.485
		C735.124,1306.766,741.614,1315.019,748.706,1322.294z"/>
	<path d="M1047.76,1284.483c24.31,3.882,48.619,7.716,72.932,11.583c1.356-8.488,2.663-16.988,4.062-25.473
		c-22.755-3.782-45.635-6.872-68.281-11.286c-6.677-1.544-13.712-2.631-19.557-6.454c-7.072-4.551-12.611-11.056-17.492-17.821
		c-3.357-4.79-6.669-9.668-9.16-14.978c-1.764-5.23-1.992-10.811-2.361-16.276c-8.49-1.321-16.969-2.703-25.461-4.009
		c-1.813,9.9-1.391,20.553,3.101,29.718c5.507,11.209,11.204,22.56,19.644,31.891c4.188,4.72,8.884,9.002,14.023,12.661
		C1027.645,1279.904,1037.746,1282.767,1047.76,1284.483z"/>
	<path d="M1267.475,1078.114c21.949-11.148,43.87-22.335,65.811-33.497c-3.892-7.664-7.831-15.308-11.686-22.995
		c-20.632,10.315-40.958,21.264-61.874,31.005c-6.31,2.675-12.64,5.931-19.615,6.274c-8.396,0.475-16.701-1.532-24.626-4.136
		c-5.532-1.902-11.078-3.902-16.214-6.733c-4.501-3.195-7.966-7.575-11.477-11.779c-7.645,3.922-15.318,7.787-22.955,11.723
		c4.352,9.075,10.955,17.445,19.977,22.219c11.044,5.832,22.325,11.666,34.637,14.254c6.162,1.357,12.478,2.061,18.787,2.001
		C1248.51,1086.233,1258.365,1082.612,1267.475,1078.114z"/>
	<path d="M1323.928,782.013c11.204-21.921,22.363-43.855,33.553-65.783c-7.653-3.913-15.333-7.782-22.971-11.735
		c-10.629,20.472-20.637,41.278-31.833,61.452c-3.532,5.873-6.739,12.228-12.181,16.606c-6.514,5.319-14.412,8.577-22.354,11.129
		c-5.593,1.713-11.255,3.355-17.075,4.083c-5.519,0.061-10.897-1.446-16.209-2.784c-3.88,7.666-7.815,15.303-11.681,22.976
		c8.855,4.784,19.117,7.674,29.222,6.234c12.362-1.773,24.918-3.685,36.4-8.828c5.783-2.524,11.306-5.667,16.375-9.424
		C1313.357,799.729,1319.201,791.006,1323.928,782.013z"/>
	<path d="M1195.555,509.28c-3.82-24.32-7.686-48.624-11.521-72.942c-8.491,1.333-16.979,2.717-25.481,4.008
		c3.435,22.81,7.567,45.525,10.367,68.427c0.595,6.828,1.735,13.854-0.094,20.594c-2.143,8.132-6.618,15.41-11.544,22.143
		c-3.518,4.673-7.134,9.33-11.414,13.34c-4.429,3.294-9.666,5.235-14.749,7.275c1.367,8.482,2.673,16.974,4.055,25.454
		c9.975-1.335,19.977-5.028,27.305-12.133c8.959-8.701,17.993-17.627,24.26-28.538c3.195-5.441,5.816-11.231,7.708-17.249
		C1197.416,529.826,1197.017,519.334,1195.555,509.28z"/>
	<path d="M840.048,411.805c-4.761-4.755-9.528-9.506-14.255-14.293c4.753-4.743,9.505-9.487,14.255-14.233
		c4.75,4.745,9.502,9.49,14.255,14.233C849.577,402.299,844.809,407.05,840.048,411.805z"/>
	<path d="M1093.611,494.193c-1.056-6.645-2.121-13.291-3.131-19.942c6.633-1.043,13.266-2.089,19.899-3.136
		c1.054,6.631,2.109,13.263,3.167,19.894C1106.907,492.103,1100.258,493.144,1093.611,494.193z"/>
	<path d="M1250.322,709.886c3.052-5.997,6.096-11.999,9.189-17.974c5.98,3.055,11.96,6.108,17.941,9.159
		c-3.045,5.984-6.089,11.969-9.131,17.956C1262.307,716.011,1256.315,712.944,1250.322,709.886z"/>
	<path d="M1250.322,976.498c5.994-3.058,11.985-6.124,17.999-9.141c3.042,5.986,6.086,11.971,9.131,17.956
		c-5.981,3.051-11.962,6.104-17.941,9.159C1256.418,988.497,1253.373,982.495,1250.322,976.498z"/>
	<path d="M1093.611,1192.191c6.647,1.049,13.296,2.09,19.934,3.185c-1.057,6.631-2.113,13.262-3.167,19.894
		c-6.633-1.047-13.265-2.092-19.899-3.136C1091.49,1205.482,1092.555,1198.837,1093.611,1192.191z"/>
	<path d="M840.048,1274.579c4.761,4.755,9.528,9.506,14.255,14.293c-4.753,4.743-9.505,9.487-14.255,14.233
		c-4.75-4.745-9.502-9.49-14.255-14.233C830.52,1284.085,835.288,1279.334,840.048,1274.579z"/>
	<path d="M586.486,1192.191c1.056,6.645,2.121,13.291,3.131,19.943c-6.633,1.043-13.266,2.089-19.898,3.136
		c-1.054-6.631-2.109-13.263-3.167-19.894C573.19,1194.281,579.839,1193.24,586.486,1192.191z"/>
	<path d="M429.775,976.498c-3.052,5.997-6.096,11.999-9.189,17.974c-5.98-3.055-11.96-6.108-17.941-9.159
		c3.045-5.984,6.089-11.969,9.131-17.956C417.79,970.374,423.781,973.44,429.775,976.498z"/>
	<path d="M429.775,709.886c-5.994,3.058-11.985,6.124-17.999,9.141c-3.042-5.986-6.086-11.971-9.131-17.956
		c5.981-3.052,11.962-6.104,17.941-9.159C423.679,697.887,426.724,703.889,429.775,709.886z"/>
	<path d="M586.486,494.193c-6.647-1.049-13.296-2.09-19.934-3.185c1.057-6.631,2.113-13.262,3.167-19.894
		c6.633,1.047,13.265,2.092,19.898,3.136C588.607,480.902,587.542,487.547,586.486,494.193z"/>
	<path d="M840.048,454.908c-23.15-23.161-46.333-46.285-69.457-69.463c6.186-5.959,12.051-12.255,18.181-18.281
		c17.1,17.083,34.188,34.177,51.276,51.271c17.088-17.095,34.176-34.188,51.276-51.271c6.13,6.025,11.996,12.322,18.181,18.281
		C886.381,408.623,863.198,431.747,840.048,454.908z"/>
	<path d="M1068.276,529.063c-5.115-32.344-10.278-64.679-15.363-97.023c8.507-1.185,16.953-2.832,25.454-4.103
		c3.793,23.872,7.57,47.744,11.346,71.619c23.872-3.786,47.744-7.571,71.62-11.34c1.418,8.478,2.462,17.019,3.964,25.476
		C1132.966,518.852,1100.618,523.933,1068.276,529.063z"/>
	<path d="M1209.329,723.206c14.874-29.174,29.702-58.368,44.6-87.523c7.579,4.042,15.38,7.674,23.005,11.642
		c-10.963,21.542-21.939,43.076-32.917,64.61c21.539,10.969,43.076,21.939,64.607,32.922c-3.836,7.692-8.012,15.216-11.768,22.941
		C1267.666,752.968,1238.51,738.065,1209.329,723.206z"/>
	<path d="M1209.329,963.179c29.181-14.859,58.337-29.762,87.527-44.592c3.756,7.724,7.932,15.248,11.768,22.941
		c-21.531,10.984-43.068,21.953-64.607,32.922c10.978,21.534,21.954,43.068,32.917,64.61c-7.625,3.969-15.426,7.601-23.005,11.642
		C1239.031,1021.546,1224.203,992.352,1209.329,963.179z"/>
	<path d="M1068.276,1157.321c32.342,5.131,64.689,10.212,97.021,15.371c-1.502,8.457-2.546,16.998-3.964,25.476
		c-23.875-3.77-47.747-7.554-71.62-11.34c-3.776,23.874-7.554,47.747-11.346,71.619c-8.501-1.271-16.947-2.918-25.454-4.103
		C1057.998,1221.999,1063.161,1189.665,1068.276,1157.321z"/>
	<path d="M840.048,1231.476c23.15,23.161,46.332,46.285,69.457,69.463c-6.186,5.959-12.051,12.255-18.181,18.281
		c-17.1-17.083-34.188-34.177-51.276-51.271c-17.088,17.095-34.176,34.188-51.276,51.271c-6.13-6.026-11.996-12.322-18.181-18.281
		C793.716,1277.761,816.899,1254.637,840.048,1231.476z"/>
	<path d="M611.821,1157.321c5.115,32.344,10.278,64.679,15.363,97.023c-8.507,1.185-16.953,2.832-25.454,4.103
		c-3.793-23.872-7.57-47.745-11.346-71.619c-23.872,3.786-47.744,7.571-71.62,11.34c-1.418-8.478-2.462-17.019-3.964-25.476
		C547.131,1167.532,579.479,1162.451,611.821,1157.321z"/>
	<path d="M470.768,963.179c-14.874,29.174-29.702,58.368-44.6,87.523c-7.579-4.042-15.38-7.674-23.005-11.642
		c10.963-21.542,21.939-43.076,32.917-64.61c-21.539-10.969-43.076-21.939-64.607-32.922c3.836-7.692,8.012-15.216,11.768-22.941
		C412.431,933.417,441.587,948.319,470.768,963.179z"/>
	<path d="M470.768,723.206c-29.181,14.859-58.337,29.762-87.527,44.592c-3.756-7.724-7.932-15.248-11.768-22.941
		c21.531-10.984,43.068-21.953,64.607-32.922c-10.978-21.534-21.954-43.068-32.917-64.61c7.625-3.968,15.426-7.601,23.005-11.642
		C441.066,664.838,455.894,694.032,470.768,723.206z"/>
	<path d="M611.821,529.063c-32.342-5.131-64.689-10.212-97.021-15.371c1.502-8.457,2.546-16.998,3.964-25.476
		c23.875,3.77,47.747,7.554,71.62,11.34c3.776-23.874,7.554-47.747,11.346-71.619c8.501,1.271,16.947,2.918,25.454,4.103
		C622.099,464.385,616.935,496.719,611.821,529.063z"/>
	<path d="M730.19,505.083c0.538-2.056,1.161-4.089,1.877-6.089c3.455-9.331,9.762-17.286,16.634-24.345
		c17.385-17.424,34.804-34.821,52.2-52.239c6.086,6.07,12.139,12.178,18.259,18.22c-15.55,15.771-31.531,31.128-46.728,47.242
		c-4.223,4.649-8.613,9.226-11.935,14.588c-4.555,8.248-5.533,17.905-5.65,27.17c0.017,6.285,0.232,12.604,1.299,18.806
		c1.564,5.434,4.782,10.182,7.75,14.931c-3.725,3.708-7.434,7.429-11.149,11.143c-5.188-0.821-10.376-1.651-15.569-2.462
		c-0.39-5.586-0.578-11.319-2.506-16.635c-2.782-5.645-6.322-10.883-10.003-15.978c-5.54-7.427-12.008-14.665-20.541-18.66
		c-5.84-2.385-12.081-3.508-18.23-4.787c-21.766-4.104-43.721-7.135-65.572-10.754c1.399-8.485,2.706-16.985,4.062-25.473
		c24.312,3.867,48.63,7.702,72.936,11.58c9.708,1.672,19.487,4.4,27.766,9.919C726.848,502.457,728.547,503.736,730.19,505.083z"/>
	<path d="M949.907,505.083c1.643-1.347,3.342-2.626,5.097-3.823c8.28-5.518,18.058-8.246,27.767-9.919
		c24.307-3.878,48.624-7.713,72.936-11.58c1.356,8.488,2.663,16.988,4.062,25.473c-21.85,3.619-43.806,6.649-65.572,10.754
		c-6.149,1.279-12.391,2.402-18.23,4.787c-8.533,3.995-15.001,11.233-20.541,18.66c-3.681,5.095-7.22,10.333-10.003,15.978
		c-1.928,5.316-2.117,11.048-2.506,16.635c-5.193,0.81-10.381,1.641-15.569,2.462c-3.715-3.714-7.423-7.435-11.149-11.143
		c2.969-4.748,6.186-9.497,7.75-14.931c1.067-6.202,1.282-12.521,1.299-18.806c-0.116-9.265-1.095-18.922-5.65-27.17
		c-3.322-5.362-7.711-9.939-11.935-14.588c-15.196-16.114-31.178-31.471-46.728-47.242c6.119-6.042,12.172-12.15,18.259-18.22
		c17.396,17.419,34.815,34.815,52.2,52.239c6.871,7.059,13.179,15.014,16.634,24.345
		C948.746,500.994,949.369,503.027,949.907,505.083z"/>
	<path d="M1127.661,634.229c2.121-0.124,4.247-0.16,6.371-0.097c9.942,0.402,19.457,3.943,28.294,8.296
		c21.944,11.15,43.871,22.34,65.813,33.503c-3.892,7.664-7.831,15.308-11.686,22.995c-19.805-9.915-39.348-20.369-59.369-29.842
		c-5.727-2.58-11.436-5.34-17.562-6.843c-9.252-1.783-18.739,0.27-27.586,3.023c-5.973,1.958-11.915,4.116-17.484,7.047
		c-4.685,3.167-8.206,7.694-11.805,11.985c-4.678-2.397-9.362-4.774-14.043-7.16c-0.822-5.188-1.636-10.378-2.47-15.568
		c5.193-2.097,10.587-4.047,15.046-7.524c4.509-4.391,8.397-9.376,12.105-14.451c5.352-7.564,10.237-15.952,11.399-25.302
		c0.464-6.291-0.396-12.574-1.081-18.817c-2.823-21.969-6.725-43.786-10.036-65.685c8.502-1.291,16.99-2.675,25.481-4.008
		c3.836,24.317,7.702,48.63,11.526,72.945c1.41,9.75,1.837,19.893-0.853,29.473C1129.126,630.239,1128.435,632.25,1127.661,634.229z
		"/>
	<path d="M1195.557,843.192c1.789,1.147,3.53,2.367,5.211,3.667c7.807,6.169,13.423,14.626,18.013,23.343
		c11.199,21.919,22.361,43.861,33.552,65.788c-7.653,3.913-15.333,7.782-22.971,11.735c-10.194-19.663-19.861-39.607-30.49-59.039
		c-3.116-5.453-6.113-11.042-10.186-15.859c-6.437-6.881-15.319-10.796-24.094-13.769c-5.983-1.926-12.058-3.674-18.287-4.576
		c-5.651-0.191-11.162,1.401-16.595,2.757c-2.376-4.689-4.768-9.366-7.153-14.046c2.384-4.681,4.777-9.358,7.153-14.046
		c5.433,1.356,10.944,2.948,16.595,2.757c6.229-0.902,12.304-2.649,18.287-4.576c8.776-2.973,17.658-6.888,24.094-13.769
		c4.073-4.817,7.07-10.405,10.186-15.859c10.629-19.432,20.296-39.377,30.49-59.039c7.637,3.953,15.317,7.822,22.971,11.735
		c-11.19,21.928-22.353,43.869-33.552,65.788c-4.59,8.716-10.207,17.173-18.013,23.342
		C1199.087,840.825,1197.346,842.045,1195.557,843.192z"/>
	<path d="M1127.661,1052.155c0.773,1.979,1.464,3.99,2.061,6.029c2.69,9.58,2.262,19.723,0.853,29.473
		c-3.823,24.315-7.69,48.628-11.526,72.945c-8.491-1.333-16.979-2.717-25.481-4.008c3.31-21.899,7.213-43.717,10.036-65.685
		c0.684-6.244,1.545-12.526,1.081-18.817c-1.163-9.35-6.048-17.738-11.399-25.302c-3.708-5.075-7.596-10.06-12.105-14.451
		c-4.46-3.477-9.854-5.427-15.046-7.524c0.834-5.19,1.647-10.38,2.47-15.568c4.68-2.385,9.365-4.763,14.043-7.16
		c3.599,4.291,7.121,8.818,11.805,11.985c5.569,2.931,11.512,5.089,17.484,7.047c8.847,2.753,18.334,4.806,27.586,3.023
		c6.126-1.503,11.836-4.263,17.562-6.843c20.021-9.473,39.565-19.927,59.369-29.842c3.855,7.687,7.794,15.331,11.686,22.995
		c-21.942,11.162-43.869,22.353-65.813,33.503c-8.837,4.354-18.351,7.894-28.294,8.297
		C1131.908,1052.315,1129.783,1052.279,1127.661,1052.155z"/>
	<path d="M949.907,1181.301c-0.538,2.056-1.16,4.089-1.877,6.089c-3.455,9.331-9.762,17.286-16.634,24.345
		c-17.385,17.424-34.804,34.821-52.2,52.239c-6.086-6.07-12.139-12.178-18.259-18.22c15.55-15.771,31.531-31.128,46.728-47.242
		c4.223-4.649,8.613-9.226,11.935-14.588c4.555-8.248,5.533-17.905,5.65-27.17c-0.017-6.285-0.232-12.604-1.299-18.806
		c-1.564-5.434-4.782-10.182-7.75-14.931c3.725-3.708,7.434-7.429,11.149-11.143c5.188,0.821,10.376,1.651,15.569,2.462
		c0.39,5.586,0.578,11.319,2.506,16.635c2.783,5.645,6.322,10.883,10.003,15.978c5.54,7.427,12.008,14.665,20.541,18.66
		c5.84,2.385,12.081,3.508,18.23,4.787c21.766,4.104,43.721,7.135,65.572,10.754c-1.399,8.485-2.706,16.985-4.062,25.473
		c-24.312-3.866-48.63-7.702-72.936-11.58c-9.708-1.672-19.487-4.4-27.767-9.919C953.249,1183.927,951.55,1182.648,949.907,1181.301
		z"/>
	<path d="M730.19,1181.301c-1.643,1.347-3.342,2.626-5.097,3.823c-8.28,5.518-18.058,8.246-27.766,9.919
		c-24.307,3.878-48.624,7.713-72.936,11.58c-1.356-8.488-2.663-16.988-4.062-25.473c21.85-3.619,43.806-6.649,65.572-10.754
		c6.149-1.279,12.391-2.402,18.23-4.787c8.533-3.995,15.001-11.233,20.541-18.66c3.681-5.095,7.22-10.333,10.003-15.978
		c1.928-5.316,2.117-11.048,2.506-16.635c5.193-0.811,10.381-1.641,15.569-2.462c3.715,3.714,7.423,7.435,11.149,11.143
		c-2.969,4.748-6.186,9.497-7.75,14.931c-1.067,6.202-1.283,12.521-1.299,18.806c0.116,9.265,1.094,18.922,5.65,27.17
		c3.322,5.362,7.711,9.939,11.935,14.588c15.196,16.114,31.178,31.471,46.728,47.242c-6.119,6.042-12.173,12.151-18.259,18.22
		c-17.396-17.418-34.815-34.815-52.2-52.239c-6.871-7.059-13.179-15.014-16.634-24.345
		C731.351,1185.39,730.728,1183.357,730.19,1181.301z"/>
	<path d="M552.436,1052.155c-2.121,0.124-4.247,0.16-6.371,0.097c-9.942-0.402-19.457-3.943-28.294-8.297
		c-21.944-11.15-43.871-22.34-65.813-33.503c3.892-7.664,7.831-15.308,11.686-22.995c19.805,9.915,39.348,20.369,59.369,29.842
		c5.727,2.58,11.436,5.34,17.562,6.843c9.252,1.783,18.739-0.27,27.586-3.023c5.973-1.958,11.915-4.116,17.484-7.047
		c4.685-3.167,8.206-7.694,11.805-11.985c4.678,2.397,9.362,4.774,14.043,7.16c0.822,5.188,1.636,10.378,2.47,15.568
		c-5.193,2.097-10.587,4.047-15.046,7.524c-4.509,4.391-8.397,9.376-12.105,14.451c-5.352,7.564-10.237,15.952-11.399,25.302
		c-0.464,6.291,0.397,12.574,1.081,18.817c2.823,21.969,6.725,43.786,10.036,65.685c-8.502,1.291-16.99,2.675-25.481,4.008
		c-3.836-24.317-7.702-48.63-11.526-72.945c-1.41-9.75-1.837-19.893,0.853-29.473
		C550.971,1056.145,551.662,1054.134,552.436,1052.155z"/>
	<path d="M484.539,843.192c-1.789-1.147-3.53-2.367-5.211-3.667c-7.807-6.169-13.423-14.626-18.013-23.342
		c-11.199-21.919-22.361-43.861-33.552-65.788c7.653-3.913,15.333-7.782,22.971-11.735c10.194,19.663,19.861,39.607,30.49,59.039
		c3.116,5.453,6.113,11.042,10.186,15.859c6.436,6.881,15.319,10.796,24.094,13.769c5.983,1.927,12.059,3.674,18.287,4.576
		c5.651,0.191,11.162-1.401,16.595-2.757c2.376,4.689,4.768,9.366,7.153,14.046c-2.384,4.681-4.777,9.358-7.153,14.046
		c-5.433-1.356-10.944-2.948-16.595-2.757c-6.229,0.902-12.304,2.649-18.287,4.576c-8.776,2.973-17.658,6.888-24.094,13.769
		c-4.073,4.817-7.07,10.405-10.186,15.859c-10.629,19.432-20.296,39.377-30.49,59.039c-7.637-3.953-15.317-7.822-22.971-11.735
		c11.19-21.928,22.353-43.869,33.552-65.788c4.59-8.716,10.207-17.173,18.013-23.343C481.01,845.559,482.75,844.339,484.539,843.192
		z"/>
	<path d="M552.436,634.229c-0.773-1.979-1.464-3.99-2.061-6.029c-2.69-9.58-2.262-19.723-0.853-29.473
		c3.823-24.315,7.69-48.628,11.526-72.945c8.492,1.333,16.979,2.717,25.481,4.008c-3.31,21.899-7.213,43.717-10.036,65.685
		c-0.684,6.244-1.545,12.526-1.081,18.817c1.163,9.35,6.048,17.738,11.399,25.302c3.708,5.075,7.596,10.06,12.105,14.451
		c4.46,3.477,9.854,5.427,15.046,7.524c-0.834,5.19-1.647,10.38-2.47,15.568c-4.68,2.385-9.365,4.763-14.043,7.16
		c-3.599-4.291-7.121-8.818-11.805-11.985c-5.569-2.931-11.512-5.089-17.484-7.047c-8.847-2.753-18.334-4.806-27.586-3.023
		c-6.126,1.503-11.836,4.263-17.562,6.843c-20.021,9.473-39.565,19.927-59.369,29.842c-3.855-7.687-7.794-15.331-11.686-22.995
		c21.942-11.162,43.869-22.353,65.813-33.503c8.837-4.354,18.352-7.894,28.294-8.296
		C548.189,634.069,550.314,634.105,552.436,634.229z"/>
	<path d="M840.048,522.364c-4.761-4.755-9.528-9.506-14.255-14.293c4.753-4.743,9.505-9.487,14.255-14.233
		c4.75,4.745,9.502,9.49,14.255,14.233C849.577,512.858,844.809,517.609,840.048,522.364z"/>
	<path d="M1028.626,583.637c-1.056-6.645-2.121-13.291-3.131-19.943c6.633-1.043,13.266-2.089,19.899-3.136
		c1.054,6.631,2.109,13.263,3.167,19.894C1041.922,581.547,1035.273,582.588,1028.626,583.637z"/>
	<path d="M1145.174,744.051c3.052-5.997,6.096-11.999,9.189-17.974c5.98,3.055,11.96,6.108,17.941,9.159
		c-3.045,5.984-6.089,11.969-9.131,17.956C1157.159,750.175,1151.168,747.109,1145.174,744.051z"/>
	<path d="M1145.174,942.333c5.994-3.058,11.985-6.124,17.999-9.141c3.042,5.986,6.086,11.971,9.131,17.956
		c-5.981,3.051-11.962,6.104-17.941,9.159C1151.27,954.333,1148.226,948.33,1145.174,942.333z"/>
	<path d="M1028.626,1102.747c6.647,1.049,13.296,2.09,19.934,3.185c-1.057,6.631-2.113,13.262-3.167,19.894
		c-6.633-1.047-13.265-2.092-19.899-3.136C1026.505,1116.038,1027.57,1109.393,1028.626,1102.747z"/>
	<path d="M840.048,1164.02c4.761,4.755,9.528,9.506,14.255,14.293c-4.753,4.743-9.505,9.487-14.255,14.233
		c-4.75-4.745-9.502-9.49-14.255-14.233C830.52,1173.526,835.288,1168.775,840.048,1164.02z"/>
	<path d="M651.471,1102.747c1.056,6.645,2.121,13.291,3.131,19.943c-6.633,1.043-13.266,2.089-19.899,3.136
		c-1.054-6.631-2.109-13.263-3.167-19.894C638.175,1104.837,644.824,1103.796,651.471,1102.747z"/>
	<path d="M534.923,942.333c-3.052,5.997-6.096,11.999-9.189,17.974c-5.98-3.055-11.96-6.108-17.941-9.159
		c3.045-5.984,6.089-11.969,9.131-17.956C522.938,936.209,528.929,939.275,534.923,942.333z"/>
	<path d="M534.923,744.051c-5.994,3.058-11.985,6.124-17.999,9.141c-3.042-5.986-6.086-11.971-9.131-17.956
		c5.981-3.052,11.962-6.104,17.941-9.159C528.827,732.052,531.871,738.054,534.923,744.051z"/>
	<path d="M651.471,583.637c-6.647-1.049-13.296-2.09-19.934-3.185c1.057-6.631,2.113-13.262,3.167-19.894
		c6.633,1.047,13.265,2.092,19.899,3.136C653.592,570.346,652.527,576.991,651.471,583.637z"/>
	<path d="M840.048,565.467c-23.15-23.161-46.333-46.285-69.457-69.463c6.186-5.965,12.051-12.255,18.181-18.281
		c17.1,17.08,34.188,34.174,51.276,51.27c17.088-17.096,34.176-34.19,51.276-51.27c6.13,6.025,11.996,12.316,18.181,18.281
		C886.381,519.182,863.198,542.306,840.048,565.467z"/>
	<path d="M1003.291,618.507c-5.115-32.345-10.278-64.679-15.363-97.023c8.51-1.19,16.953-2.831,25.454-4.103
		c3.795,23.869,7.572,47.742,11.347,71.617c23.873-3.787,47.745-7.572,71.619-11.339c1.418,8.478,2.465,17.015,3.964,25.476
		C1067.981,608.296,1035.633,613.377,1003.291,618.507z"/>
	<path d="M1104.181,757.37c14.874-29.174,29.702-58.368,44.6-87.523c7.584,4.04,15.38,7.674,23.005,11.642
		c-10.96,21.541-21.937,43.075-32.915,64.609c21.54,10.969,43.077,21.938,64.605,32.923c-3.836,7.692-8.007,15.214-11.768,22.941
		C1162.518,787.132,1133.362,772.23,1104.181,757.37z"/>
	<path d="M1104.181,929.014c29.181-14.859,58.337-29.762,87.527-44.592c3.761,7.726,7.932,15.248,11.768,22.941
		c-21.528,10.985-43.066,21.954-64.605,32.923c10.979,21.535,21.955,43.068,32.915,64.609c-7.625,3.969-15.42,7.603-23.005,11.642
		C1133.883,987.382,1119.055,958.188,1104.181,929.014z"/>
	<path d="M1003.291,1067.877c32.342,5.13,64.689,10.212,97.021,15.371c-1.498,8.461-2.546,16.998-3.964,25.476
		c-23.874-3.767-47.745-7.552-71.619-11.339c-3.776,23.875-7.553,47.748-11.347,71.617c-8.501-1.271-16.944-2.913-25.454-4.103
		C993.013,1132.555,998.177,1100.221,1003.291,1067.877z"/>
	<path d="M840.048,1120.917c23.15,23.161,46.332,46.285,69.457,69.463c-6.186,5.965-12.051,12.255-18.181,18.281
		c-17.1-17.08-34.188-34.174-51.276-51.27c-17.088,17.096-34.176,34.19-51.276,51.27c-6.13-6.026-11.996-12.316-18.181-18.281
		C793.716,1167.202,816.899,1144.078,840.048,1120.917z"/>
	<path d="M676.806,1067.877c5.115,32.344,10.278,64.679,15.363,97.023c-8.51,1.19-16.953,2.832-25.454,4.103
		c-3.795-23.869-7.572-47.742-11.347-71.617c-23.873,3.787-47.745,7.572-71.619,11.339c-1.418-8.478-2.465-17.015-3.964-25.476
		C612.116,1078.088,644.464,1073.007,676.806,1067.877z"/>
	<path d="M575.916,929.014c-14.874,29.174-29.702,58.368-44.6,87.523c-7.584-4.04-15.38-7.674-23.005-11.642
		c10.96-21.541,21.937-43.075,32.915-64.609c-21.54-10.969-43.077-21.938-64.605-32.923c3.836-7.692,8.007-15.214,11.768-22.941
		C517.579,899.252,546.735,914.154,575.916,929.014z"/>
	<path d="M575.916,757.37c-29.181,14.859-58.337,29.762-87.527,44.592c-3.761-7.726-7.932-15.248-11.768-22.941
		c21.528-10.985,43.066-21.954,64.605-32.923c-10.979-21.534-21.955-43.068-32.915-64.609c7.625-3.968,15.42-7.603,23.005-11.642
		C546.214,699.003,561.042,728.197,575.916,757.37z"/>
	<path d="M676.806,618.507c-32.342-5.131-64.689-10.212-97.022-15.371c1.498-8.461,2.546-16.998,3.964-25.476
		c23.873,3.767,47.745,7.552,71.619,11.339c3.776-23.875,7.553-47.748,11.347-71.617c8.501,1.271,16.944,2.913,25.454,4.103
		C687.084,553.829,681.92,586.163,676.806,618.507z"/>
	<path d="M925.72,579.522c0.573-0.091,1.144-0.184,1.715-0.281c21.097-3.326,42.188-6.698,63.287-10.036
		c1.356,8.488,2.667,16.991,4.062,25.473c-24.832,3.961-49.672,7.895-74.509,11.817c-1.168,0.175-2.338,0.365-3.505,0.573
		c-0.822-0.855-1.657-1.696-2.499-2.524c-17.789-17.772-35.572-35.556-53.334-53.356c6.114-6.042,12.172-12.15,18.259-18.22
		c15.108,15.102,30.188,30.227,45.301,45.318C924.902,578.701,925.31,579.112,925.72,579.522z"/>
	<path d="M1064.339,680.235c0.516,0.263,1.034,0.524,1.553,0.781c19.023,9.71,38.067,19.379,57.099,29.08
		c-3.892,7.664-7.829,15.314-11.686,22.995c-22.417-11.391-44.826-22.809-67.225-34.235c-1.048-0.545-2.106-1.079-3.173-1.597
		c-0.162-1.175-0.344-2.346-0.538-3.511c-3.945-24.834-7.879-49.674-11.786-74.514c8.498-1.294,16.99-2.675,25.481-4.008
		c3.346,21.098,6.656,42.198,10.012,63.291C1064.16,679.09,1064.249,679.663,1064.339,680.235z"/>
	<path d="M1117.287,843.192c0.263,0.516,0.528,1.032,0.797,1.544c9.682,19.037,19.407,38.053,29.101,57.088
		c-7.653,3.913-15.335,7.787-22.971,11.735c-11.44-22.393-22.858-44.801-34.263-67.211c-0.528-1.057-1.069-2.111-1.628-3.157
		c0.559-1.046,1.101-2.1,1.628-3.157c11.405-22.41,22.823-44.819,34.263-67.211c7.636,3.948,15.317,7.822,22.971,11.735
		c-9.695,19.035-19.419,38.051-29.101,57.088C1117.815,842.16,1117.55,842.676,1117.287,843.192z"/>
	<path d="M1064.339,1006.149c-0.091,0.572-0.179,1.145-0.263,1.718c-3.357,21.092-6.667,42.192-10.012,63.291
		c-8.491-1.333-16.984-2.714-25.481-4.008c3.907-24.84,7.841-49.68,11.786-74.514c0.194-1.165,0.376-2.336,0.538-3.511
		c1.067-0.517,2.125-1.052,3.173-1.597c22.4-11.426,44.808-22.844,67.225-34.235c3.857,7.682,7.794,15.331,11.686,22.995
		c-19.032,9.702-38.076,19.37-57.099,29.08C1065.373,1005.625,1064.856,1005.886,1064.339,1006.149z"/>
	<path d="M925.72,1106.862c-0.41,0.41-0.818,0.821-1.223,1.236c-15.113,15.091-30.194,30.216-45.301,45.318
		c-6.086-6.07-12.145-12.178-18.259-18.22c17.761-17.8,35.545-35.583,53.334-53.356c0.842-0.828,1.677-1.669,2.499-2.524
		c1.167,0.209,2.337,0.398,3.505,0.573c24.838,3.922,49.678,7.856,74.509,11.817c-1.395,8.482-2.706,16.985-4.062,25.473
		c-21.099-3.338-42.19-6.71-63.287-10.036C926.864,1107.045,926.292,1106.952,925.72,1106.862z"/>
	<path d="M754.377,1106.862c-0.573,0.091-1.144,0.184-1.715,0.281c-21.097,3.326-42.188,6.698-63.287,10.036
		c-1.356-8.488-2.667-16.991-4.062-25.473c24.832-3.961,49.672-7.895,74.51-11.817c1.168-0.175,2.338-0.365,3.505-0.573
		c0.822,0.855,1.657,1.696,2.499,2.524c17.789,17.772,35.572,35.556,53.334,53.356c-6.114,6.042-12.173,12.15-18.259,18.22
		c-15.108-15.102-30.188-30.227-45.302-45.318C755.195,1107.683,754.787,1107.272,754.377,1106.862z"/>
	<path d="M615.758,1006.149c-0.516-0.263-1.034-0.524-1.553-0.781c-19.023-9.71-38.067-19.379-57.099-29.08
		c3.892-7.664,7.829-15.314,11.686-22.995c22.417,11.392,44.826,22.809,67.225,34.235c1.048,0.545,2.106,1.079,3.173,1.597
		c0.162,1.175,0.344,2.346,0.538,3.511c3.945,24.834,7.879,49.674,11.786,74.514c-8.498,1.294-16.99,2.675-25.481,4.008
		c-3.346-21.098-6.656-42.198-10.012-63.291C615.937,1007.294,615.848,1006.721,615.758,1006.149z"/>
	<path d="M562.81,843.192c-0.263-0.517-0.528-1.032-0.797-1.545c-9.682-19.037-19.407-38.053-29.101-57.088
		c7.653-3.913,15.335-7.787,22.971-11.735c11.44,22.392,22.858,44.801,34.263,67.211c0.528,1.057,1.069,2.111,1.628,3.157
		c-0.559,1.046-1.101,2.1-1.628,3.157c-11.405,22.41-22.823,44.819-34.263,67.211c-7.636-3.948-15.317-7.822-22.971-11.735
		c9.695-19.035,19.419-38.051,29.101-57.088C562.281,844.224,562.547,843.709,562.81,843.192z"/>
	<path d="M615.758,680.235c0.091-0.572,0.179-1.145,0.263-1.718c3.357-21.093,6.667-42.192,10.012-63.291
		c8.492,1.333,16.984,2.714,25.481,4.008c-3.907,24.84-7.841,49.68-11.786,74.514c-0.194,1.165-0.376,2.336-0.538,3.511
		c-1.067,0.517-2.125,1.052-3.173,1.597c-22.4,11.426-44.808,22.844-67.225,34.235c-3.857-7.682-7.794-15.331-11.686-22.995
		c19.032-9.702,38.076-19.37,57.099-29.08C614.724,680.759,615.241,680.498,615.758,680.235z"/>
	<path d="M754.377,579.522c0.41-0.41,0.818-0.821,1.223-1.236c15.113-15.091,30.194-30.216,45.302-45.318
		c6.086,6.07,12.145,12.178,18.259,18.22c-17.761,17.8-35.545,35.583-53.334,53.356c-0.842,0.828-1.677,1.669-2.499,2.524
		c-1.167-0.209-2.337-0.398-3.505-0.573c-24.838-3.922-49.678-7.856-74.51-11.817c1.395-8.482,2.706-16.985,4.062-25.473
		c21.099,3.338,42.19,6.71,63.287,10.036C753.233,579.339,753.804,579.432,754.377,579.522z"/>
	<path d="M900.573,656.917c0.469,0.183,0.937,0.37,1.401,0.565c2.803,1.005,5.507,2.559,8.556,2.595
		c5.104,0.141,10.176-0.642,15.208-1.427c1.345,8.494,2.68,16.993,4.06,25.485c-10.721,1.647-21.902,1.593-32.283-1.828
		c-1.588-0.439-3.159-0.932-4.712-1.476c-1.576-0.473-3.137-0.997-4.679-1.576c-10.409-3.333-19.486-9.862-27.192-17.496
		c6.108-6.059,12.184-12.15,18.264-18.231c3.61,3.593,7.253,7.208,11.465,10.094c2.488,1.763,5.589,2.095,8.447,2.93
		C899.598,656.666,900.086,656.79,900.573,656.917z"/>
	<path d="M998.503,728.068c0.272,0.424,0.54,0.85,0.801,1.28c1.677,2.46,2.951,5.307,5.397,7.128
		c4.046,3.114,8.61,5.462,13.143,7.785c-3.904,7.662-7.82,15.323-11.695,23.004c-9.642-4.97-18.656-11.585-25.042-20.455
		c-1.027-1.288-2.008-2.611-2.945-3.964c-0.997-1.309-1.952-2.65-2.86-4.025c-6.462-8.815-9.968-19.432-11.715-30.138
		c8.503-1.311,16.999-2.669,25.492-4.014c0.808,5.029,1.63,10.095,3.342,14.905c0.976,2.889,3.29,4.98,5.111,7.335
		C997.862,727.291,998.184,727.678,998.503,728.068z"/>
	<path d="M1035.909,843.192c-0.029,0.503-0.062,1.005-0.105,1.507c-0.089,2.976-0.732,6.028,0.176,8.939
		c1.443,4.898,3.755,9.48,6.057,14.023c-7.662,3.904-15.333,7.799-22.983,11.737c-4.879-9.688-8.283-20.338-8.237-31.268
		c-0.074-1.646-0.089-3.293-0.052-4.937c-0.037-1.645-0.021-3.291,0.052-4.937c-0.046-10.93,3.358-21.58,8.237-31.268
		c7.65,3.937,15.321,7.833,22.983,11.737c-2.302,4.543-4.615,9.125-6.057,14.023c-0.908,2.911-0.266,5.963-0.176,8.939
		C1035.847,842.187,1035.88,842.689,1035.909,843.192z"/>
	<path d="M998.503,958.316c-0.319,0.39-0.641,0.776-0.97,1.157c-1.821,2.355-4.135,4.446-5.111,7.335
		c-1.712,4.81-2.534,9.876-3.342,14.905c-8.494-1.345-16.989-2.703-25.492-4.014c1.747-10.706,5.253-21.323,11.715-30.138
		c0.908-1.375,1.863-2.716,2.86-4.025c0.937-1.352,1.917-2.675,2.945-3.964c6.387-8.87,15.401-15.485,25.042-20.455
		c3.875,7.682,7.791,15.342,11.695,23.004c-4.533,2.323-9.097,4.67-13.143,7.785c-2.446,1.821-3.72,4.668-5.397,7.128
		C999.043,957.466,998.775,957.892,998.503,958.316z"/>
	<path d="M900.573,1029.467c-0.487,0.128-0.975,0.251-1.465,0.366c-2.858,0.835-5.959,1.167-8.447,2.93
		c-4.212,2.885-7.855,6.501-11.465,10.094c-6.081-6.081-12.156-12.172-18.264-18.231c7.706-7.634,16.783-14.163,27.192-17.496
		c1.543-0.579,3.104-1.102,4.679-1.576c1.553-0.543,3.124-1.037,4.712-1.476c10.38-3.422,21.561-3.475,32.283-1.829
		c-1.381,8.492-2.715,16.991-4.06,25.485c-5.032-0.785-10.105-1.569-15.208-1.427c-3.049,0.036-5.753,1.59-8.556,2.595
		C901.509,1029.097,901.042,1029.284,900.573,1029.467z"/>
	<path d="M779.524,1029.467c-0.469-0.183-0.937-0.37-1.4-0.565c-2.803-1.005-5.507-2.559-8.556-2.595
		c-5.104-0.141-10.176,0.642-15.208,1.427c-1.345-8.494-2.68-16.993-4.06-25.485c10.721-1.647,21.902-1.593,32.283,1.829
		c1.588,0.438,3.159,0.932,4.712,1.476c1.576,0.473,3.137,0.997,4.68,1.576c10.409,3.333,19.486,9.862,27.192,17.496
		c-6.108,6.059-12.184,12.151-18.264,18.231c-3.61-3.593-7.253-7.208-11.465-10.094c-2.488-1.763-5.589-2.095-8.447-2.93
		C780.499,1029.718,780.011,1029.595,779.524,1029.467z"/>
	<path d="M681.594,958.316c-0.272-0.424-0.54-0.85-0.801-1.28c-1.677-2.46-2.951-5.307-5.397-7.128
		c-4.046-3.114-8.61-5.462-13.143-7.785c3.904-7.662,7.82-15.323,11.695-23.004c9.642,4.97,18.656,11.585,25.042,20.455
		c1.027,1.288,2.008,2.611,2.945,3.964c0.997,1.309,1.952,2.65,2.86,4.025c6.462,8.815,9.968,19.432,11.715,30.138
		c-8.503,1.311-16.999,2.669-25.492,4.014c-0.808-5.029-1.63-10.095-3.342-14.905c-0.976-2.889-3.29-4.98-5.111-7.335
		C682.235,959.093,681.913,958.706,681.594,958.316z"/>
	<path d="M644.188,843.192c0.029-0.503,0.062-1.005,0.105-1.507c0.089-2.976,0.732-6.028-0.176-8.939
		c-1.443-4.898-3.755-9.48-6.057-14.023c7.662-3.904,15.333-7.799,22.983-11.737c4.879,9.688,8.283,20.338,8.237,31.268
		c0.074,1.646,0.089,3.293,0.052,4.937c0.037,1.645,0.021,3.291-0.052,4.937c0.046,10.93-3.358,21.58-8.237,31.268
		c-7.65-3.937-15.321-7.833-22.983-11.737c2.302-4.543,4.615-9.125,6.057-14.023c0.908-2.911,0.266-5.963,0.176-8.939
		C644.25,844.197,644.217,843.695,644.188,843.192z"/>
	<path d="M681.594,728.068c0.319-0.39,0.641-0.777,0.97-1.157c1.821-2.355,4.135-4.446,5.111-7.335
		c1.712-4.81,2.534-9.877,3.342-14.905c8.494,1.345,16.989,2.703,25.492,4.014c-1.747,10.706-5.253,21.322-11.715,30.138
		c-0.908,1.375-1.863,2.716-2.86,4.025c-0.937,1.352-1.917,2.675-2.945,3.964c-6.387,8.87-15.401,15.485-25.042,20.455
		c-3.874-7.682-7.791-15.342-11.695-23.004c4.533-2.323,9.097-4.67,13.143-7.785c2.446-1.821,3.72-4.668,5.397-7.128
		C681.053,728.918,681.322,728.492,681.594,728.068z"/>
	<path d="M779.524,656.917c0.487-0.128,0.975-0.251,1.465-0.366c2.858-0.835,5.959-1.167,8.447-2.93
		c4.212-2.886,7.855-6.501,11.465-10.094c6.081,6.081,12.156,12.173,18.264,18.231c-7.706,7.634-16.783,14.163-27.192,17.496
		c-1.543,0.579-3.104,1.102-4.68,1.576c-1.553,0.543-3.123,1.037-4.712,1.476c-10.38,3.422-21.561,3.475-32.283,1.828
		c1.381-8.492,2.715-16.991,4.06-25.485c5.032,0.785,10.105,1.569,15.208,1.427c3.049-0.036,5.753-1.59,8.556-2.595
		C778.587,657.287,779.055,657.1,779.524,656.917z"/>
	<path d="M840.048,632.703c-4.753-4.689-9.504-9.377-14.255-14.068c4.753-4.743,9.505-9.488,14.255-14.233
		c4.75,4.746,9.502,9.49,14.255,14.233C849.553,623.326,844.802,628.014,840.048,632.703z"/>
	<path d="M963.771,672.903c-1.089-6.588-2.177-13.173-3.264-19.76c6.633-1.043,13.266-2.089,19.899-3.136
		c1.054,6.632,2.109,13.263,3.167,19.894C976.971,670.903,970.373,671.903,963.771,672.903z"/>
	<path d="M1040.235,778.147c2.991-5.97,5.981-11.937,8.974-17.905c5.98,3.055,11.96,6.108,17.942,9.159
		c-3.046,5.984-6.089,11.97-9.132,17.956C1052.09,784.289,1046.164,781.219,1040.235,778.147z"/>
	<path d="M1040.235,908.237c5.929-3.072,11.855-6.141,17.784-9.21c3.042,5.986,6.086,11.971,9.132,17.956
		c-5.981,3.051-11.962,6.104-17.942,9.159C1046.216,920.173,1043.226,914.207,1040.235,908.237z"/>
	<path d="M963.771,1013.481c6.602,1,13.201,2,19.802,3.002c-1.057,6.631-2.113,13.262-3.167,19.894
		c-6.633-1.047-13.266-2.093-19.899-3.136C961.593,1026.654,962.682,1020.069,963.771,1013.481z"/>
	<path d="M840.048,1053.681c4.753,4.689,9.504,9.377,14.255,14.068c-4.753,4.743-9.505,9.488-14.255,14.233
		c-4.75-4.746-9.502-9.49-14.255-14.233C830.544,1063.058,835.295,1058.37,840.048,1053.681z"/>
	<path d="M716.326,1013.481c1.089,6.588,2.177,13.173,3.264,19.76c-6.633,1.043-13.266,2.089-19.899,3.136
		c-1.054-6.632-2.109-13.263-3.167-19.894C703.125,1015.481,709.724,1014.481,716.326,1013.481z"/>
	<path d="M639.862,908.237c-2.991,5.97-5.981,11.937-8.974,17.905c-5.98-3.055-11.96-6.108-17.942-9.159
		c3.045-5.984,6.089-11.97,9.132-17.956C628.007,902.095,633.933,905.165,639.862,908.237z"/>
	<path d="M639.862,778.147c-5.929,3.072-11.855,6.141-17.784,9.21c-3.042-5.986-6.086-11.971-9.132-17.956
		c5.981-3.051,11.962-6.104,17.942-9.159C633.88,766.211,636.871,772.177,639.862,778.147z"/>
	<path d="M716.326,672.903c-6.602-1-13.201-2-19.802-3.002c1.057-6.631,2.113-13.262,3.167-19.894
		c6.633,1.047,13.266,2.093,19.899,3.136C718.504,659.73,717.415,666.315,716.326,672.903z"/>
	<path d="M840.048,672.11c-6.598-3.665-12.519-8.627-17.843-13.923c-17.247-17.225-34.483-34.456-51.686-51.719
		c6.081-6.064,12.178-12.112,18.215-18.22c10.542,10.464,21.001,21.012,31.52,31.498c6.501,6.403,12.953,12.892,19.794,18.94
		c6.841-6.048,13.293-12.536,19.794-18.94c10.52-10.487,20.979-21.034,31.52-31.498c6.036,6.108,12.134,12.156,18.215,18.22
		c-17.203,17.264-34.439,34.494-51.686,51.719C852.568,663.483,846.646,668.445,840.048,672.11z"/>
	<path d="M940.608,704.784c-3.183-6.843-5.057-14.338-6.252-21.751c-3.829-24.073-7.645-48.144-11.415-72.222
		c8.484-1.332,16.971-2.641,25.445-4.034c2.378,14.662,4.64,29.343,6.986,44.01c1.496,9.002,2.902,18.044,4.881,26.957
		c9.089-0.872,18.123-2.329,27.146-3.688c14.674-2.3,29.335-4.686,44.015-6.955c1.293,8.49,2.671,16.966,4.026,25.447
		c-24.065,3.855-48.137,7.664-72.215,11.461C955.807,705.163,948.1,705.697,940.608,704.784z"/>
	<path d="M1002.757,790.325c1.447-7.408,4.336-14.573,7.728-21.272c11.052-21.726,22.113-43.443,33.216-65.139
		c7.646,3.909,15.282,7.839,22.957,11.693c-6.695,13.26-13.494,26.466-20.216,39.711c-4.081,8.162-8.258,16.303-11.896,24.678
		c7.866,4.637,16.03,8.768,24.129,12.973c13.224,6.764,26.487,13.452,39.697,20.244c-3.944,7.629-7.811,15.296-11.7,22.953
		c-21.735-11.026-43.448-22.094-65.16-33.174C1014.831,799.566,1008.281,795.467,1002.757,790.325z"/>
	<path d="M1002.757,896.059c5.525-5.142,12.074-9.241,18.755-12.667c21.712-11.08,43.425-22.148,65.16-33.174
		c3.888,7.657,7.756,15.325,11.7,22.953c-13.21,6.792-26.473,13.48-39.697,20.244c-8.099,4.204-16.264,8.336-24.129,12.973
		c3.638,8.375,7.815,16.516,11.896,24.678c6.722,13.245,13.522,26.452,20.216,39.711c-7.675,3.853-15.311,7.784-22.957,11.693
		c-11.103-21.696-22.164-43.413-33.216-65.139C1007.093,910.632,1004.204,903.467,1002.757,896.059z"/>
	<path d="M940.608,981.6c7.492-0.913,15.199-0.379,22.619,0.776c24.078,3.798,48.15,7.607,72.215,11.461
		c-1.355,8.48-2.733,16.957-4.026,25.447c-14.679-2.27-29.34-4.655-44.015-6.955c-9.023-1.359-18.057-2.816-27.146-3.688
		c-1.98,8.914-3.386,17.955-4.881,26.957c-2.347,14.667-4.609,29.348-6.986,44.01c-8.474-1.394-16.962-2.702-25.445-4.034
		c3.77-24.078,7.586-48.149,11.415-72.222C935.55,995.938,937.424,988.443,940.608,981.6z"/>
	<path d="M840.048,1014.274c6.598,3.665,12.519,8.627,17.843,13.923c17.247,17.225,34.483,34.456,51.686,51.719
		c-6.081,6.064-12.178,12.112-18.215,18.22c-10.542-10.464-21.001-21.012-31.52-31.498c-6.501-6.403-12.953-12.892-19.794-18.94
		c-6.841,6.048-13.293,12.536-19.794,18.94c-10.52,10.486-20.979,21.034-31.52,31.498c-6.037-6.108-12.134-12.156-18.215-18.22
		c17.203-17.264,34.439-34.494,51.686-51.719C827.529,1022.901,833.451,1017.939,840.048,1014.274z"/>
	<path d="M739.489,981.6c3.183,6.843,5.057,14.338,6.252,21.751c3.829,24.073,7.645,48.144,11.415,72.222
		c-8.484,1.332-16.971,2.641-25.445,4.034c-2.378-14.662-4.64-29.343-6.986-44.01c-1.496-9.002-2.902-18.044-4.881-26.957
		c-9.089,0.872-18.123,2.329-27.146,3.688c-14.674,2.3-29.335,4.686-44.015,6.955c-1.293-8.49-2.671-16.966-4.026-25.447
		c24.065-3.855,48.137-7.664,72.215-11.461C724.29,981.221,731.997,980.687,739.489,981.6z"/>
	<path d="M677.34,896.059c-1.447,7.407-4.336,14.573-7.728,21.272c-11.052,21.726-22.113,43.443-33.216,65.139
		c-7.646-3.909-15.282-7.839-22.957-11.693c6.695-13.26,13.494-26.466,20.216-39.711c4.081-8.162,8.258-16.303,11.896-24.678
		c-7.866-4.637-16.03-8.768-24.129-12.973c-13.224-6.764-26.487-13.452-39.697-20.244c3.944-7.629,7.811-15.296,11.7-22.953
		c21.735,11.026,43.448,22.094,65.16,33.174C665.266,886.819,671.816,890.917,677.34,896.059z"/>
	<path d="M677.34,790.325c-5.525,5.142-12.074,9.241-18.755,12.667c-21.712,11.08-43.425,22.148-65.16,33.174
		c-3.888-7.657-7.756-15.325-11.7-22.953c13.21-6.792,26.473-13.48,39.697-20.244c8.099-4.204,16.264-8.336,24.129-12.973
		c-3.638-8.375-7.815-16.516-11.896-24.678c-6.722-13.245-13.522-26.452-20.216-39.711c7.675-3.854,15.311-7.784,22.957-11.693
		c11.103,21.696,22.164,43.413,33.216,65.139C673.004,775.752,675.893,782.917,677.34,790.325z"/>
	<path d="M739.489,704.784c-7.492,0.913-15.199,0.379-22.619-0.776c-24.078-3.798-48.15-7.606-72.215-11.461
		c1.355-8.48,2.733-16.957,4.026-25.447c14.679,2.27,29.34,4.655,44.015,6.955c9.023,1.359,18.057,2.816,27.146,3.688
		c1.98-8.914,3.386-17.955,4.881-26.957c2.347-14.667,4.609-29.348,6.986-44.01c8.474,1.394,16.962,2.702,25.445,4.034
		c-3.77,24.078-7.587,48.149-11.415,72.222C744.547,690.446,742.673,697.941,739.489,704.784z"/>
</g>
</svg>
