<svg width="100%" height="100%" viewBox="0 0 600 600"
    xmlns="http://www.w3.org/2000/svg"
    xmlns:xlink="http://www.w3.org/1999/xlink">

  <desc>
    Based on Openclipart image: Mandala Line Art by btj51q2
    https://openclipart.org/detail/244178/io
    
    recreated with circle elements to show students how to code it
    
    Jay Nick
    STEAMcoded.org
  </desc>

  <g style="fill:none;stroke:navy;">
    <circle cx="300" cy="150" r="150" transform="rotate(0,300,300)" />
    <circle cx="300" cy="150" r="150" transform="rotate(15,300,300)" />
    <circle cx="300" cy="150" r="150" transform="rotate(30,300,300)" />
    <circle cx="300" cy="150" r="150" transform="rotate(45,300,300)" />
    <circle cx="300" cy="150" r="150" transform="rotate(60,300,300)" />
    <circle cx="300" cy="150" r="150" transform="rotate(75,300,300)" />
    <circle cx="300" cy="150" r="150" transform="rotate(90,300,300)" />
    <circle cx="300" cy="150" r="150" transform="rotate(105,300,300)" />
    <circle cx="300" cy="150" r="150" transform="rotate(120,300,300)" />
    <circle cx="300" cy="150" r="150" transform="rotate(135,300,300)" />
    <circle cx="300" cy="150" r="150" transform="rotate(150,300,300)" />
    <circle cx="300" cy="150" r="150" transform="rotate(165,300,300)" />
    <circle cx="300" cy="150" r="150" transform="rotate(180,300,300)" />
    <circle cx="300" cy="150" r="150" transform="rotate(195,300,300)" />
    <circle cx="300" cy="150" r="150" transform="rotate(210,300,300)" />
    <circle cx="300" cy="150" r="150" transform="rotate(225,300,300)" />
    <circle cx="300" cy="150" r="150" transform="rotate(240,300,300)" />
    <circle cx="300" cy="150" r="150" transform="rotate(255,300,300)" />
    <circle cx="300" cy="150" r="150" transform="rotate(270,300,300)" />
    <circle cx="300" cy="150" r="150" transform="rotate(285,300,300)" />
    <circle cx="300" cy="150" r="150" transform="rotate(300,300,300)" />
    <circle cx="300" cy="150" r="150" transform="rotate(315,300,300)" />
    <circle cx="300" cy="150" r="150" transform="rotate(330,300,300)" />
    <circle cx="300" cy="150" r="150" transform="rotate(345,300,300)" />
  </g>

</svg>